<svg width="38" height="38" viewBox="0 0 38 38" fill="none" xmlns="http://www.w3.org/2000/svg">
<g clip-path="url(#clip0_86_990)">
<path d="M16.7359 23.9791C16.0113 23.9791 15.3299 23.6967 14.8164 23.1842C10.7617 19.129 10.7617 12.5309 14.8164 8.47593L20.2507 3.04171C22.2117 1.08018 24.8233 0 27.6045 0C30.3857 0 32.9972 1.08018 34.9582 3.04171C39.0129 7.09665 39.0129 13.6948 34.9582 17.7497L31.3357 21.3725C30.8231 21.8853 30.1417 22.1677 29.4161 22.1679C28.6915 22.1679 28.0101 21.8855 27.4966 21.3729C26.9841 20.8601 26.7012 20.1783 26.7012 19.453C26.7012 18.7278 26.984 18.046 27.4966 17.5332L31.1192 13.9104C33.0572 11.9724 33.0572 8.81912 31.1192 6.88119C30.1824 5.9444 28.9337 5.42829 27.6045 5.42829C26.2753 5.42829 25.0266 5.9444 24.0898 6.88119L18.6555 12.3154C16.7175 14.2533 16.7175 17.4065 18.6555 19.3444C19.7143 20.403 19.7143 22.1254 18.6555 23.1839C18.142 23.6968 17.4606 23.9791 16.7359 23.9791Z" fill="white"/>
<path d="M10.3958 38C7.61456 38 5.00302 36.9198 3.04202 34.9583C-1.0127 30.9034 -1.0127 24.3052 3.04202 20.2503L5.75961 17.5329C6.27216 17.0204 6.95446 16.738 7.67913 16.738C8.4038 16.738 9.08609 17.0205 9.59865 17.5334C10.1112 18.0459 10.3941 18.7278 10.3941 19.4529C10.3941 20.1782 10.1113 20.8601 9.59865 21.3729L6.88105 24.09C4.94298 26.0276 4.94298 29.1809 6.88105 31.1188C7.81784 32.0556 9.06657 32.5717 10.3958 32.5717C11.7249 32.5717 12.9737 32.0558 13.9105 31.1188L19.3447 25.6846C21.2828 23.7467 21.2828 20.5935 19.3447 18.6556C18.8321 18.1428 18.5493 17.4609 18.5493 16.7358C18.5493 16.0107 18.8321 15.3289 19.3447 14.8161C19.8572 14.3033 20.5395 14.0211 21.2642 14.0211C21.9889 14.0211 22.6712 14.3032 23.1837 14.8159C27.2384 18.871 27.2384 25.4691 23.1837 29.5241L17.7495 34.9583C15.7885 36.9198 13.177 38 10.3958 38Z" fill="white"/>
</g>
<defs>
<clipPath id="clip0_86_990">
<rect width="38" height="38" fill="white"/>
</clipPath>
</defs>
</svg>
