<svg width="24" height="18" viewBox="0 0 24 18" fill="none" xmlns="http://www.w3.org/2000/svg">
<path d="M23.1248 4.71469L13.5465 0.336937C12.5633 -0.112312 11.4375 -0.112312 10.4543 0.336937L0.87525 4.71469C0.33525 4.96219 0 5.48494 0 6.07969C0 6.67444 0.33525 7.19719 0.87525 7.44469L4.5 9.10144V13.6427C4.5 15.2544 5.50425 16.6764 6.99975 17.1812C8.622 17.7249 10.3042 18.0002 12 18.0002C13.6958 18.0002 15.378 17.7249 17.0018 17.1812C18.4958 16.6772 19.5 15.2552 19.5 13.6427V9.10144L21 8.41594V12.7502C21 13.1642 21.3353 13.5002 21.75 13.5002C22.1647 13.5002 22.5 13.1642 22.5 12.7502V7.73044L23.1248 7.44469C23.6648 7.19794 24 6.67519 24 6.08044C24 5.48569 23.6648 4.96144 23.1248 4.71469ZM18 13.6427C18 14.6109 17.406 15.4614 16.524 15.7592C13.587 16.7432 10.4115 16.7424 7.4775 15.7592C6.594 15.4614 6 14.6102 6 13.6427V9.78694L10.4535 11.8224C10.9447 12.0467 11.472 12.1592 12 12.1592C12.528 12.1592 13.0545 12.0474 13.5465 11.8224L18 9.78694V13.6427ZM12.9218 10.4582C12.336 10.7259 11.6632 10.7259 11.0775 10.4582L1.49475 6.08119L1.49925 6.07894L11.0782 1.70119C11.664 1.43344 12.3368 1.43344 12.9225 1.70119L22.5007 6.08044L12.9218 10.4582Z" fill="#7F56D9"/>
</svg>
