<svg width="56" height="56" viewBox="0 0 56 56" fill="none" xmlns="http://www.w3.org/2000/svg">
<rect x="4" y="4" width="48" height="48" rx="24" fill="#F4EBFF"/>
<rect x="4" y="4" width="48" height="48" rx="24" stroke="#F9F5FF" stroke-width="8"/>
<mask id="path-2-outside-1_85_449" maskUnits="userSpaceOnUse" x="22.4736" y="15.1943" width="20" height="26" fill="black">
<rect fill="white" x="22.4736" y="15.1943" width="20" height="26"/>
<path d="M39.6309 22.5782C39.7218 22.7448 39.8325 22.8582 40.0094 22.9414H40.0122C40.62 23.2279 40.7125 23.4958 40.4051 24.0935C39.8 25.2707 38.8297 25.9013 37.4967 25.9522C36.971 25.9719 36.4563 25.9949 36.0254 26.3576C35.7185 26.6161 35.5367 27.2872 35.5951 27.6833C35.7753 28.9093 36.3891 30.0126 36.5588 31.244C36.744 32.5895 36.652 33.8763 36.0017 35.0935C35.8441 35.4896 35.5874 35.8095 35.2606 36.079C35.2358 36.0533 35.2143 36.0401 35.216 36.0314C35.3377 35.363 35.2512 34.7111 35.0595 34.0675C34.5244 32.7511 33.6097 31.8658 32.1792 31.5733C31.819 31.4996 31.4539 31.5287 31.091 31.5576L31.0871 31.5579L31.0703 31.5622C30.6279 31.6736 30.1867 31.7847 29.7987 32.0411C29.5734 32.1901 29.3855 32.366 29.3182 32.6388C29.2692 32.8371 29.278 33.0233 29.4577 33.1586C29.6362 33.2934 29.8224 33.2698 29.9944 33.1504C30.5625 32.7571 31.1945 32.6426 31.858 32.7796C33.1931 33.0551 34.1233 34.1814 33.9839 35.7887C33.9431 36.2647 33.8048 36.7183 33.5954 37.15C33.467 37.4146 33.4708 37.4201 33.7794 37.4097C34.4539 37.3866 35.0975 37.4699 35.6562 37.895C35.9378 38.1092 36.1026 38.3946 36.2266 38.7156C36.3098 38.932 36.2624 39.0016 36.0205 38.9999C34.644 38.9901 33.267 38.9939 31.8899 38.9923C31.0452 38.9912 30.2004 38.995 29.3563 38.9868C27.3769 38.9676 25.979 38.0018 25.0769 36.3047C24.3622 34.9609 24.3622 33.5246 24.6664 32.0696C25.0025 30.4596 25.8919 29.181 27.0805 28.0826C27.4458 27.7452 27.82 27.4176 28.1903 27.0856C28.252 27.0506 28.3132 27.015 28.3749 26.9799C28.4636 26.8512 28.5749 26.7471 28.7149 26.6748C28.9661 26.3789 29.2736 26.1335 29.4979 25.8125C30.0153 25.0708 30.3917 24.2754 30.5344 23.3715C30.6209 22.8253 30.8865 22.3372 31.1113 21.8327C31.3659 21.2613 31.745 20.8367 32.2216 20.4637C32.3677 20.3492 32.42 20.3744 32.4839 20.536C32.6895 21.0548 33.0983 21.3857 33.575 21.6404C33.6786 21.6957 33.8125 21.7045 33.9288 21.7231C34.012 21.7363 34.1481 21.7012 34.207 21.5938C34.2748 21.47 34.1635 21.4098 34.0968 21.3446C33.0405 20.3076 32.917 19.0366 33.159 17.6726C33.1672 17.6277 33.1777 17.5828 33.1942 17.5406C33.3463 17.1456 33.5304 17.0826 33.8257 17.3823C34.3448 17.9098 34.9024 18.4286 35.0622 19.1917C35.1311 19.5198 35.3377 19.5127 35.5896 19.5658C37.3992 19.9498 38.747 20.9622 39.6309 22.5782Z"/>
</mask>
<path d="M40.0094 22.9414L39.477 24.0724C39.6436 24.1508 39.8254 24.1914 40.0094 24.1914V22.9414ZM39.6309 22.5782L40.728 21.9792L40.7276 21.9784L39.6309 22.5782ZM35.5896 19.5658L35.8491 18.3431L35.8477 18.3428L35.5896 19.5658ZM35.0622 19.1917L33.8388 19.4479L33.8389 19.4485L35.0622 19.1917ZM33.8257 17.3823L34.7167 16.5056L34.716 16.5048L33.8257 17.3823ZM33.1942 17.5406L34.3581 17.9967L34.3607 17.9897L33.1942 17.5406ZM33.159 17.6726L31.9296 17.4464L31.9282 17.4543L33.159 17.6726ZM34.0968 21.3446L33.2211 22.2366L33.2229 22.2384L34.0968 21.3446ZM34.207 21.5938L35.3027 22.1955L35.3035 22.1941L34.207 21.5938ZM33.9288 21.7231L33.731 22.9574L33.7337 22.9578L33.9288 21.7231ZM33.575 21.6404L32.9858 22.7428L32.9861 22.743L33.575 21.6404ZM32.4839 20.536L31.3216 20.9958L31.3218 20.9964L32.4839 20.536ZM32.2216 20.4637L32.9921 21.448L32.9929 21.4474L32.2216 20.4637ZM31.1113 21.8327L32.2531 22.3414L32.2531 22.3414L31.1113 21.8327ZM30.5344 23.3715L29.2998 23.1759L29.2997 23.1765L30.5344 23.3715ZM29.4979 25.8125L30.5226 26.5284L30.5231 26.5277L29.4979 25.8125ZM28.7149 26.6748L29.2886 27.7853C29.4334 27.7105 29.5621 27.6082 29.6676 27.484L28.7149 26.6748ZM28.3749 26.9799L28.9923 28.0668C29.1563 27.9736 29.2971 27.8445 29.4041 27.6892L28.3749 26.9799ZM28.1903 27.0856L27.5728 25.9988C27.4951 26.0429 27.4224 26.0952 27.3559 26.1549L28.1903 27.0856ZM27.0805 28.0826L26.2323 27.1644L26.2321 27.1646L27.0805 28.0826ZM24.6664 32.0696L25.8899 32.3254L25.89 32.3251L24.6664 32.0696ZM25.0769 36.3047L26.1807 35.718L26.1805 35.7178L25.0769 36.3047ZM29.3563 38.9868L29.3684 37.7369H29.3684L29.3563 38.9868ZM31.8899 38.9923L31.8883 40.2423L31.8884 40.2423L31.8899 38.9923ZM36.0205 38.9999L36.0115 40.2499L36.012 40.2499L36.0205 38.9999ZM36.2266 38.7156L37.3933 38.267L37.3926 38.2653L36.2266 38.7156ZM35.6562 37.895L34.8994 38.8898L34.8995 38.8899L35.6562 37.895ZM33.7794 37.4097L33.8216 38.6589L33.822 38.6589L33.7794 37.4097ZM33.5954 37.15L34.72 37.6957L34.72 37.6955L33.5954 37.15ZM33.9839 35.7887L32.7385 35.6807L32.7384 35.682L33.9839 35.7887ZM31.858 32.7796L31.6053 34.0038L31.6053 34.0038L31.858 32.7796ZM29.9944 33.1504L29.2828 32.1227L29.2812 32.1238L29.9944 33.1504ZM29.4577 33.1586L30.2107 32.161L30.2097 32.1602L29.4577 33.1586ZM29.3182 32.6388L30.5317 32.9389L30.5319 32.9379L29.3182 32.6388ZM29.7987 32.0411L29.1095 30.9983L29.1094 30.9984L29.7987 32.0411ZM31.0703 31.5622L30.7651 30.35L30.7651 30.35L31.0703 31.5622ZM31.0871 31.5579L30.9878 30.3119C30.9183 30.3174 30.8494 30.3288 30.7818 30.3458L31.0871 31.5579ZM31.091 31.5576L31.1903 32.8037L31.1903 32.8037L31.091 31.5576ZM32.1792 31.5733L31.9287 32.7979L31.9288 32.7979L32.1792 31.5733ZM35.0595 34.0675L36.2574 33.7106C36.246 33.672 36.2326 33.6341 36.2175 33.5968L35.0595 34.0675ZM35.216 36.0314L36.4443 36.263L36.4457 36.2554L35.216 36.0314ZM35.2606 36.079L34.3603 36.9461C34.8133 37.4165 35.5521 37.4589 36.056 37.0433L35.2606 36.079ZM36.0017 35.0935L34.8992 34.5046C34.8772 34.5457 34.8576 34.588 34.8403 34.6314L36.0017 35.0935ZM36.5588 31.244L37.7972 31.0736L37.7971 31.0734L36.5588 31.244ZM35.5951 27.6833L36.8318 27.5015L36.8317 27.5009L35.5951 27.6833ZM36.0254 26.3576L35.2206 25.4012L35.2201 25.4016L36.0254 26.3576ZM37.4967 25.9522L37.5436 27.2013L37.5444 27.2013L37.4967 25.9522ZM40.4051 24.0935L39.2935 23.5216L39.2933 23.5221L40.4051 24.0935ZM40.0122 22.9414L40.5452 21.8108C40.3785 21.7322 40.1965 21.6914 40.0122 21.6914V22.9414ZM40.5418 21.8105C40.565 21.8214 40.6113 21.8482 40.6601 21.8956C40.6824 21.9174 40.6994 21.9378 40.7114 21.9542C40.723 21.97 40.7282 21.9797 40.728 21.9792L38.5337 23.1772C38.7373 23.5501 39.0344 23.864 39.477 24.0724L40.5418 21.8105ZM40.7276 21.9784C39.6703 20.0454 38.0183 18.8034 35.8491 18.3431L35.3301 20.7886C36.78 21.0963 37.8237 21.879 38.5342 23.178L40.7276 21.9784ZM35.8477 18.3428C35.7986 18.3324 35.7529 18.324 35.7249 18.3188C35.6915 18.3126 35.6799 18.3104 35.6717 18.3087C35.6511 18.3043 35.721 18.3162 35.8164 18.3639C35.9308 18.4211 36.0569 18.5163 36.1563 18.6558C36.248 18.7845 36.2773 18.8957 36.2856 18.9349L33.8389 19.4485C33.8816 19.6518 33.9625 19.8851 34.1202 20.1064C34.2856 20.3385 34.492 20.4968 34.6982 20.5999C34.8854 20.6935 35.0584 20.7341 35.1495 20.7535C35.1972 20.7637 35.2436 20.7722 35.2699 20.7771C35.3018 20.783 35.3176 20.786 35.3315 20.7889L35.8477 18.3428ZM36.2857 18.9355C36.0348 17.7376 35.1478 16.9437 34.7167 16.5056L32.9347 18.259C33.5417 18.8759 33.77 19.1195 33.8388 19.4479L36.2857 18.9355ZM34.716 16.5048C34.5545 16.3409 33.9644 15.7678 33.1289 15.9946C32.7257 16.104 32.4673 16.3578 32.3213 16.5495C32.1777 16.7379 32.0871 16.9372 32.0277 17.0914L34.3607 17.9897C34.3774 17.9465 34.3668 17.9898 34.3098 18.0647C34.2502 18.1428 34.0848 18.3256 33.7836 18.4073C33.4661 18.4935 33.2053 18.4121 33.0725 18.3469C32.9574 18.2903 32.9109 18.2348 32.9355 18.2597L34.716 16.5048ZM32.0304 17.0845C31.9715 17.2347 31.9438 17.369 31.9296 17.4464L34.3883 17.8988C34.389 17.8949 34.3877 17.9031 34.3837 17.9184C34.3797 17.9339 34.3718 17.9615 34.358 17.9967L32.0304 17.0845ZM31.9282 17.4543C31.6495 19.0259 31.7512 20.7935 33.2211 22.2366L34.9725 20.4526C34.3298 19.8216 34.1846 19.0474 34.3897 17.8909L31.9282 17.4543ZM33.2229 22.2384C33.2636 22.2781 33.357 22.3599 33.319 22.3258C33.3169 22.324 33.301 22.3098 33.2797 22.2878C33.2583 22.2656 33.2237 22.2276 33.1859 22.1747C33.1078 22.0657 33.003 21.8742 32.9818 21.6125C32.9603 21.3464 33.0352 21.1313 33.1106 20.9936L35.3035 22.1941C35.4127 21.9945 35.4991 21.7253 35.4737 21.4111C35.4487 21.1012 35.3245 20.8674 35.2188 20.7197C35.1217 20.584 35.0185 20.4918 34.9844 20.4614C34.9088 20.3939 34.9634 20.4436 34.9707 20.4508L33.2229 22.2384ZM33.1114 20.9922C33.2542 20.7319 33.4675 20.6006 33.6161 20.5417C33.7533 20.4873 33.9247 20.457 34.1238 20.4884L33.7337 22.9578C34.016 23.0024 34.297 22.9611 34.5378 22.8656C34.79 22.7656 35.1008 22.5631 35.3027 22.1955L33.1114 20.9922ZM34.1265 20.4888C34.1015 20.4848 34.0785 20.4815 34.0603 20.4789C34.0511 20.4776 34.0422 20.4764 34.0346 20.4753C34.0265 20.4742 34.0201 20.4733 34.0136 20.4724C34.0008 20.4705 33.9923 20.4693 33.9859 20.4683C33.9796 20.4673 33.9772 20.4669 33.9776 20.4669C33.978 20.467 33.9825 20.4679 33.99 20.4697C33.9976 20.4714 34.0095 20.4745 34.0248 20.4792C34.0544 20.4883 34.104 20.5058 34.1639 20.5378L32.9861 22.743C33.2018 22.8582 33.405 22.9031 33.5166 22.9241C33.5764 22.9353 33.6305 22.9431 33.6644 22.9478C33.7071 22.9539 33.7173 22.9552 33.731 22.9574L34.1265 20.4888ZM34.1642 20.5379C33.8119 20.3497 33.6967 20.2033 33.6461 20.0756L31.3218 20.9964C31.6823 21.9062 32.3847 22.4216 32.9858 22.7428L34.1642 20.5379ZM33.6463 20.0762C33.6197 20.0089 33.5625 19.8704 33.4633 19.7275C33.3612 19.5806 33.1408 19.3223 32.7536 19.2023C32.3561 19.0791 32.0163 19.173 31.8272 19.2532C31.6503 19.3282 31.518 19.427 31.4504 19.48L32.9929 21.4474C32.9896 21.45 32.9733 21.4626 32.9466 21.4797C32.9209 21.4962 32.8719 21.5256 32.8033 21.5548C32.667 21.6125 32.3718 21.7013 32.0136 21.5903C31.6657 21.4825 31.4794 21.2537 31.4098 21.1534C31.3723 21.0994 31.3494 21.0554 31.3386 21.0334C31.3273 21.0104 31.3216 20.9959 31.3216 20.9958L33.6463 20.0762ZM31.4512 19.4793C30.857 19.9444 30.327 20.5217 29.9695 21.3239L32.2531 22.3414C32.4048 22.0009 32.633 21.7291 32.9921 21.448L31.4512 19.4793ZM29.9695 21.3239C29.8015 21.701 29.42 22.4168 29.2998 23.1759L31.769 23.567C31.8218 23.2338 31.9715 22.9734 32.2531 22.3414L29.9695 21.3239ZM29.2997 23.1765C29.1937 23.8478 28.9117 24.4681 28.4727 25.0973L30.5231 26.5277C31.1189 25.6735 31.5896 24.7029 31.7691 23.5664L29.2997 23.1765ZM28.4732 25.0966C28.4246 25.1661 28.3543 25.2456 28.2257 25.3761C28.118 25.4856 27.9268 25.6717 27.7622 25.8655L29.6676 27.484C29.7542 27.382 29.8424 27.2975 30.0073 27.13C30.1513 26.9837 30.3468 26.7799 30.5226 26.5284L28.4732 25.0966ZM28.1411 25.5642C27.7973 25.7418 27.5364 25.9937 27.3456 26.2706L29.4041 27.6892C29.399 27.6967 29.3866 27.7128 29.3653 27.7322C29.3434 27.752 29.3172 27.7705 29.2886 27.7853L28.1411 25.5642ZM27.7574 25.893C27.7232 25.9125 27.6897 25.9318 27.6594 25.9492C27.6282 25.9671 27.6004 25.9831 27.5728 25.9988L28.8077 28.1725C28.8419 28.1531 28.8755 28.1337 28.9057 28.1164C28.9369 28.0984 28.9648 28.0824 28.9923 28.0668L27.7574 25.893ZM27.3559 26.1549C27.0005 26.4735 26.6064 26.8189 26.2323 27.1644L27.9286 29.0009C28.2853 28.6715 28.6394 28.3617 29.0247 28.0164L27.3559 26.1549ZM26.2321 27.1646C24.9144 28.3823 23.847 29.878 23.4428 31.8141L25.89 32.3251C26.1581 31.0412 26.8694 29.9797 27.9288 29.0007L26.2321 27.1646ZM23.4429 31.8138C23.1063 33.4239 23.0693 35.1919 23.9733 36.8917L26.1805 35.7178C25.6552 34.73 25.6182 33.6253 25.8899 32.3254L23.4429 31.8138ZM23.9731 36.8914C25.0668 38.9489 26.8592 40.2127 29.3442 40.2367L29.3684 37.7369C27.8947 37.7226 26.8912 37.0547 26.1807 35.718L23.9731 36.8914ZM29.3441 40.2367C30.1952 40.245 31.0534 40.2412 31.8883 40.2423L31.8915 37.7423C31.0369 37.7412 30.2057 37.745 29.3684 37.7369L29.3441 40.2367ZM31.8884 40.2423C33.2722 40.2439 34.6399 40.2401 36.0115 40.2499L36.0294 37.75C34.648 37.7401 33.2617 37.7439 31.8914 37.7423L31.8884 40.2423ZM36.012 40.2499C36.1151 40.2506 36.2893 40.2463 36.4813 40.1963C36.6784 40.145 37.0139 40.0133 37.2616 39.6674C37.5132 39.3163 37.5282 38.9492 37.508 38.7343C37.4888 38.5304 37.4297 38.3617 37.3933 38.267L35.0599 39.1643C35.0597 39.164 35.0536 39.1481 35.046 39.1204C35.0387 39.0938 35.0258 39.0409 35.019 38.9688C35.0057 38.8278 35.0094 38.5186 35.2292 38.2117C35.4453 37.91 35.7288 37.8089 35.8516 37.7769C35.9692 37.7463 36.0468 37.7501 36.029 37.75L36.012 40.2499ZM37.3926 38.2653C37.2251 37.8315 36.9505 37.309 36.413 36.9001L34.8995 38.8899C34.9252 38.9094 34.9801 38.9577 35.0605 39.166L37.3926 38.2653ZM36.4131 36.9002C35.5185 36.2196 34.5284 36.1334 33.7368 36.1604L33.822 38.6589C34.3794 38.6399 34.6765 38.7202 34.8994 38.8898L36.4131 36.9002ZM33.7373 36.1604C33.6359 36.1638 33.6556 36.1611 33.6975 36.1643C33.7213 36.1661 33.8247 36.1741 33.9566 36.2192C34.096 36.267 34.348 36.3845 34.5434 36.6602C34.7446 36.9441 34.7727 37.2353 34.7644 37.4103C34.7569 37.568 34.7188 37.6805 34.7091 37.7089C34.6918 37.7593 34.676 37.7863 34.72 37.6957L32.4708 36.6043C32.4505 36.646 32.3871 36.7729 32.3441 36.8984C32.3215 36.9643 32.2759 37.1082 32.2672 37.292C32.2577 37.4932 32.2907 37.8052 32.5037 38.1057C32.7108 38.3979 32.9814 38.5278 33.1468 38.5844C33.3048 38.6385 33.4418 38.6521 33.5074 38.6571C33.6328 38.6666 33.7687 38.6607 33.8216 38.6589L33.7373 36.1604ZM34.72 37.6955C34.9855 37.1483 35.1735 36.5465 35.2293 35.8954L32.7384 35.682C32.7126 35.9829 32.624 36.2884 32.4707 36.6044L34.72 37.6955ZM35.2292 35.8967C35.4226 33.6667 34.0752 31.9608 32.1106 31.5554L31.6053 34.0038C32.311 34.1494 32.8239 34.6961 32.7385 35.6807L35.2292 35.8967ZM32.1107 31.5554C31.1285 31.3526 30.1451 31.5257 29.2828 32.1227L30.7059 34.1782C30.9798 33.9885 31.2606 33.9326 31.6053 34.0038L32.1107 31.5554ZM29.2812 32.1238C29.3317 32.0887 29.4666 32.0102 29.6736 32.0011C29.9017 31.991 30.0916 32.071 30.2107 32.161L28.7046 34.1563C29.0023 34.381 29.3745 34.5166 29.7834 34.4986C30.1711 34.4816 30.4851 34.3316 30.7075 34.1771L29.2812 32.1238ZM30.2097 32.1602C30.273 32.2079 30.3445 32.2781 30.4062 32.3747C30.4683 32.4717 30.506 32.5726 30.5255 32.6655C30.5443 32.7551 30.5441 32.8269 30.5411 32.8704C30.5382 32.913 30.5319 32.9379 30.5317 32.9389L28.1048 32.3387C28.0583 32.5266 28.0058 32.8312 28.0789 33.1791C28.1606 33.5687 28.3784 33.9106 28.7056 34.1571L30.2097 32.1602ZM30.5319 32.9379C30.5234 32.9724 30.5099 33.0077 30.4922 33.0409C30.4747 33.0735 30.4571 33.0968 30.445 33.1108C30.4335 33.1241 30.4283 33.1276 30.4353 33.1217C30.4426 33.1157 30.4586 33.1033 30.4881 33.0838L29.1094 30.9984C28.7873 31.2113 28.2837 31.6126 28.1045 32.3397L30.5319 32.9379ZM30.488 33.0839C30.6696 32.9639 30.8993 32.8943 31.3756 32.7743L30.7651 30.35C30.3565 30.4529 29.7039 30.6055 29.1095 30.9983L30.488 33.0839ZM31.3756 32.7743L31.3923 32.7701L30.7818 30.3458L30.7651 30.35L31.3756 32.7743ZM31.1864 32.804L31.1903 32.8037L30.9917 30.3116L30.9878 30.3119L31.1864 32.804ZM31.1903 32.8037C31.5835 32.7723 31.7707 32.7656 31.9287 32.7979L32.4298 30.3487C31.8674 30.2336 31.3243 30.2851 30.9916 30.3116L31.1903 32.8037ZM31.9288 32.7979C32.8882 32.9941 33.4986 33.547 33.9015 34.5381L36.2175 33.5968C35.5502 31.9551 34.3312 30.7375 32.4297 30.3486L31.9288 32.7979ZM33.8615 34.4244C34.0172 34.9469 34.062 35.3914 33.9862 35.8073L36.4457 36.2554C36.6135 35.3347 36.4853 34.4754 36.2574 33.7106L33.8615 34.4244ZM33.9876 35.7997C33.9342 36.083 33.9882 36.323 34.049 36.4817C34.1065 36.6321 34.1805 36.7384 34.222 36.7931C34.2988 36.8947 34.3774 36.9645 34.3822 36.9689C34.4392 37.0213 34.3825 36.9693 34.3603 36.9461L36.161 35.2119C36.1139 35.163 36.0341 35.0916 36.0745 35.1287C36.08 35.1338 36.0962 35.1488 36.1166 35.1696C36.1354 35.1889 36.1733 35.2288 36.2155 35.2846C36.2548 35.3365 36.3272 35.4401 36.3838 35.588C36.4436 35.7443 36.4973 35.9819 36.4443 36.263L33.9876 35.7997ZM36.056 37.0433C36.5135 36.6659 36.9139 36.182 37.1632 35.5557L34.8403 34.6314C34.7744 34.7971 34.6612 34.9531 34.4652 35.1147L36.056 37.0433ZM37.1043 35.6825C37.9176 34.1599 38.0051 32.5843 37.7972 31.0736L35.3205 31.4145C35.4829 32.5947 35.3863 33.5927 34.8992 34.5046L37.1043 35.6825ZM37.7971 31.0734C37.6936 30.3218 37.4569 29.6285 37.265 29.0611C37.0608 28.4576 36.9026 27.9833 36.8318 27.5015L34.3584 27.865C34.4677 28.6092 34.7065 29.2996 34.8968 29.8621C35.0993 30.4607 35.2544 30.9348 35.3205 31.4147L37.7971 31.0734ZM36.8317 27.5009C36.8347 27.5213 36.8342 27.5292 36.8342 27.5228C36.8342 27.5171 36.8346 27.5038 36.8369 27.4835C36.8416 27.4412 36.852 27.3885 36.8683 27.3353C36.885 27.281 36.9018 27.2455 36.9101 27.2307C36.9137 27.2243 36.9117 27.2289 36.9019 27.2415C36.8924 27.2536 36.8698 27.2807 36.8308 27.3136L35.2201 25.4016C34.7989 25.7564 34.5841 26.2568 34.4782 26.6025C34.3662 26.9678 34.2941 27.4291 34.3585 27.8657L36.8317 27.5009ZM36.8303 27.314C36.8555 27.2928 36.8914 27.2693 36.9891 27.2482C37.113 27.2215 37.2642 27.2118 37.5436 27.2013L37.4498 24.7031C36.982 24.7206 36.0264 24.723 35.2206 25.4012L36.8303 27.314ZM37.5444 27.2013C39.335 27.1329 40.7085 26.2376 41.5168 24.6649L39.2933 23.5221C38.8915 24.3038 38.3243 24.6697 37.449 24.7031L37.5444 27.2013ZM41.5166 24.6653C41.6865 24.3351 41.9752 23.7 41.7346 22.9964C41.4947 22.2947 40.8794 21.9683 40.5452 21.8108L39.4792 24.0721C39.5853 24.1221 39.5979 24.1394 39.5712 24.117C39.534 24.086 39.4308 23.9856 39.3691 23.8052C39.3073 23.6244 39.3275 23.4811 39.3382 23.4324C39.346 23.3972 39.3469 23.4178 39.2935 23.5216L41.5166 24.6653ZM40.0122 21.6914H40.0094V24.1914H40.0122V21.6914Z" fill="#8043B1" mask="url(#path-2-outside-1_85_449)"/>
<path d="M24.7917 37.1578C24.7954 37.1629 24.799 37.168 24.8026 37.1733C25.1446 37.6736 25.5285 38.1135 26.0485 38.4969C26.2752 38.6641 26.3621 38.9621 26.2608 39.2249C26.1594 39.4876 25.8949 39.6502 25.6147 39.6218C24.8091 39.5403 24.1253 39.3296 23.4745 39.0455L23.7245 38.4727L23.4745 39.0455C22.0247 38.4126 20.7732 37.4542 19.995 35.9548C18.8041 33.6608 18.8323 31.3274 20.1864 29.0885L24.7917 37.1578ZM24.7917 37.1578C23.7193 35.5786 23.4982 33.8143 23.8645 31.9101C24.0841 30.7684 24.6368 29.7538 25.4155 28.8257L24.7917 37.1578ZM26.0365 28.0089C25.9502 28.1856 25.8437 28.3309 25.7461 28.4495C25.6831 28.5261 25.6185 28.5977 25.5637 28.6583L25.5557 28.6671C25.5016 28.727 25.4572 28.7761 25.4157 28.8255L26.0365 28.0089ZM26.0365 28.0089C26.1572 27.8974 26.2531 27.7812 26.33 27.682C26.3788 27.6191 26.4159 27.5692 26.4485 27.5254C26.4978 27.4591 26.5366 27.407 26.5894 27.3454C27.4413 26.3539 28.0495 25.18 28.1106 23.7716C28.1753 22.2917 27.8424 20.8679 26.8373 19.6411L26.8373 19.641C25.9969 18.6153 25.0166 17.9013 23.9041 17.5316C22.7917 17.1618 21.5902 17.1505 20.33 17.4613L20.3299 17.4613C18.5131 17.9098 16.9944 18.9495 16.2555 20.8804C15.9354 21.4596 15.8396 22.0757 15.8077 22.6322L26.0365 28.0089ZM20.3768 24.5301C20.0549 24.3834 19.9243 24.2278 19.8698 24.0994C19.8172 23.9756 19.7929 23.7775 19.8873 23.4547C20.1017 23.184 20.3649 23.0432 20.6247 23.005C20.9068 22.9636 21.2333 23.0362 21.5488 23.2793L20.3768 24.5301ZM20.3768 24.5301C20.3796 24.5295 20.3828 24.5289 20.3865 24.528C20.405 24.5239 20.4288 24.5174 20.4645 24.5066C20.524 24.4885 20.5863 24.4699 20.6529 24.45C20.701 24.4356 20.7514 24.4206 20.8046 24.4045C21.0122 24.342 21.2373 24.3915 21.3995 24.5353C21.5617 24.6791 21.6378 24.8966 21.6006 25.1102C21.4958 25.7123 21.1967 26.2138 20.6587 26.54L20.6586 26.5401C19.5572 27.2076 18.2682 27.0843 17.2713 26.2526L17.271 26.2524C16.1226 25.2934 15.7284 24.0146 15.8077 22.6324L20.3768 24.5301ZM21.3713 27.3937L21.3714 27.3936C21.9323 26.666 22.2564 25.8773 22.3184 24.9818C22.2919 24.2366 22.0693 23.6804 21.5488 23.2793L21.3713 27.3937ZM21.3713 27.3937C20.9599 27.9275 20.5485 28.4897 20.1865 29.0884L21.3713 27.3937Z" stroke="#8043B1" stroke-width="1.25" stroke-linejoin="round"/>
</svg>
