<svg width="18" height="18" viewBox="0 0 18 18" fill="none" xmlns="http://www.w3.org/2000/svg">
<g clip-path="url(#clip0_85_510)">
<path d="M10.6364 3.41864V2.01736C10.6364 -0.672781 0 -0.672781 0 2.01736V10.2135C0 11.271 1.6554 11.9302 3.64688 12.1646C2.91846 12.4913 2.45455 12.9326 2.45455 13.4919V15.9508C2.45455 17.2958 5.13 17.9998 7.77275 17.9998C10.4155 17.9998 13.0909 17.2958 13.0909 15.9508V14.7145C15.5936 14.6457 18 13.948 18 12.6723V5.29583C18 3.59752 13.7622 2.97264 10.6364 3.41864ZM5.3182 0.817935C8.22979 0.817935 9.81819 1.62851 9.81819 2.04521C9.81819 2.46191 8.22975 3.27248 5.3182 3.27248C2.40665 3.27248 0.818208 2.46191 0.818208 2.04521C0.81817 1.62855 2.40661 0.817935 5.3182 0.817935ZM0.81817 3.18362C1.81084 3.78107 3.56918 4.09069 5.31816 4.09069C7.06714 4.09069 8.82552 3.78107 9.81819 3.18362V3.59015C8.39651 3.90545 7.36364 4.48123 7.36364 5.31796V5.56C6.72251 5.66287 6.03044 5.72703 5.3182 5.72703C2.40661 5.72703 0.818208 4.91645 0.818208 4.49976L0.81817 3.18362ZM8.18181 11.3654C8.25967 11.4123 8.34067 11.4578 8.42761 11.501C8.34573 11.4976 8.264 11.4943 8.18181 11.4921V11.3654ZM0.81817 5.63817C1.81084 6.23562 3.56918 6.54524 5.31816 6.54524C6.0263 6.54524 6.71461 6.48165 7.3636 6.38469V8.42366C6.72247 8.52652 6.0304 8.59068 5.31816 8.59068C2.40657 8.59068 0.81817 7.7801 0.81817 7.36341V5.63817ZM0.81817 10.2271V8.50182C1.81084 9.09927 3.56918 9.40889 5.31816 9.40889C6.0263 9.40889 6.71461 9.3453 7.3636 9.24835V11.2873C6.72247 11.3902 6.0304 11.4543 5.31816 11.4543C2.40661 11.4543 0.81817 10.6437 0.81817 10.2271ZM12.2727 15.9543C12.2727 16.371 10.6843 17.1816 7.77275 17.1816C4.86119 17.1816 3.27272 16.371 3.27272 15.9543V14.6381C4.26539 15.2356 6.02373 15.5452 7.77271 15.5452C9.44686 15.5452 11.1319 15.2623 12.1438 14.7142C12.1863 14.7158 12.23 14.716 12.2727 14.7173V15.9543H12.2727ZM7.77275 14.727C4.86115 14.727 3.27276 13.9165 3.27276 13.4998C3.27276 13.0831 4.86119 12.2725 7.77275 12.2725C10.6843 12.2725 12.2727 13.0831 12.2727 13.4998C12.2727 13.9165 10.6843 14.727 7.77275 14.727ZM17.1818 12.6816C17.1818 13.0776 15.7323 13.821 13.0909 13.8947V13.4998C13.0909 12.9887 12.7041 12.5755 12.0802 12.259C12.2803 12.2671 12.4809 12.2725 12.6818 12.2725C14.4308 12.2725 16.1892 11.9629 17.1818 11.3654V12.6816H17.1818ZM17.1818 10.2271C17.1818 10.6438 15.5934 11.4543 12.6818 11.4543C9.77029 11.4543 8.18185 10.6438 8.18185 10.2271V8.91088C9.17448 9.50834 10.9329 9.81795 12.6818 9.81795C14.4308 9.81795 16.1892 9.50834 17.1818 8.91088V10.2271ZM17.1818 7.77251C17.1818 8.18921 15.5934 8.99978 12.6818 8.99978C9.77029 8.99978 8.18185 8.18921 8.18185 7.77251V6.45634C9.17448 7.05379 10.9329 7.36341 12.6818 7.36341C14.4308 7.36341 16.1892 7.05379 17.1818 6.45634V7.77251ZM12.6818 6.54524C9.77025 6.54524 8.18185 5.73466 8.18185 5.31796C8.18185 4.90127 9.77029 4.09069 12.6818 4.09069C15.5934 4.09069 17.1818 4.90127 17.1818 5.31796C17.1818 5.73466 15.5934 6.54524 12.6818 6.54524Z" fill="#8043B1"/>
</g>
<defs>
<clipPath id="clip0_85_510">
<rect width="18" height="18" fill="white"/>
</clipPath>
</defs>
</svg>
