<svg width="61" height="56" viewBox="0 0 61 56" fill="none" xmlns="http://www.w3.org/2000/svg">
<path d="M59.5672 14.5141C59.1205 14.3038 58.8407 14.0174 58.6111 13.5969C56.379 9.51561 52.9751 6.95895 48.405 5.98913C47.769 5.85493 47.2471 5.87292 47.0732 5.04421C46.6696 3.11703 45.2613 1.80688 43.9504 0.474587C43.2045 -0.282175 42.7397 -0.123075 42.3556 0.874412C42.3138 0.98094 42.2874 1.09438 42.2665 1.20783C41.6556 4.65269 41.9673 7.86236 44.6351 10.4813C44.8035 10.6459 45.0846 10.7981 44.9134 11.1108C44.7645 11.3819 44.4208 11.4705 44.2106 11.4373C43.917 11.3902 43.5788 11.3681 43.3172 11.2284C42.1134 10.585 41.0809 9.74942 40.5618 8.43927C40.4004 8.03114 40.2682 7.9675 39.8994 8.25665C38.6956 9.1988 37.7382 10.271 37.0953 11.714C36.5275 12.9881 35.8567 14.2208 35.6382 15.6001C35.2778 17.8829 34.3273 19.8917 33.0206 21.7649C32.4542 22.5756 31.6777 23.1954 31.0431 23.9425C30.6896 24.1251 30.4085 24.388 30.1845 24.7131C30.0286 24.8017 29.8741 24.8916 29.7183 24.9801C28.7831 25.8185 27.8382 26.6458 26.9156 27.4981C23.9138 30.2719 21.6677 33.501 20.8189 37.567C20.0507 41.2415 20.0507 44.869 21.8556 48.2627C24.1337 52.5487 27.6642 54.9878 32.6629 55.0362C34.7949 55.0569 36.9283 55.0472 39.0616 55.05C42.5393 55.0542 46.0169 55.0445 49.4932 55.0694C50.1041 55.0735 50.2238 54.8978 50.0137 54.3513C49.7006 53.5406 49.2845 52.8198 48.5734 52.2789C47.1623 51.2053 45.5368 50.995 43.8335 51.0531C43.0542 51.0794 43.0444 51.0656 43.3687 50.3974C43.8975 49.3072 44.2468 48.1617 44.3498 46.9594C44.7019 42.9003 42.3528 40.0559 38.9809 39.36C37.3054 39.0141 35.7092 39.3033 34.2744 40.2966C33.8403 40.5982 33.3699 40.6577 32.919 40.3174C32.4653 39.9756 32.4431 39.5053 32.5669 39.0044C32.7367 38.3155 33.2112 37.8714 33.7804 37.4951C34.7726 36.8393 35.9026 36.5598 37.034 36.2748C37.9539 36.2015 38.8793 36.1268 39.7922 36.3136C43.4049 37.0523 45.715 39.288 47.0662 42.6125C47.5505 44.2381 47.769 45.8845 47.4615 47.5723C47.4573 47.5944 47.5116 47.6277 47.5742 47.6927C48.3994 47.012 49.0479 46.204 49.4459 45.2038C51.088 42.1297 51.3204 38.8799 50.8528 35.4821C50.4242 32.372 48.8739 29.5857 48.4189 26.4895C48.2714 25.4892 48.7306 23.7945 49.5057 23.1415C50.594 22.2256 51.8938 22.1675 53.2214 22.1177C56.5877 21.989 59.0383 20.3967 60.5663 17.4236C61.3429 15.9142 61.1091 15.2377 59.5741 14.5141H59.5672ZM53.0808 14.3343C52.8554 14.7922 52.0162 14.6608 51.4443 14.7701C51.3552 14.7867 51.2592 14.7728 51.1673 14.7728C50.0123 14.7493 49.1982 14.2015 48.7139 13.1694C48.3785 12.4541 48.5455 12.0183 49.265 11.6711C50.4479 11.1011 51.7198 11.4608 52.4796 12.6021C52.8345 13.1348 53.3494 13.7878 53.0808 14.3356V14.3343Z" fill="url(#paint0_linear_86_731)"/>
<path d="M19.8596 51.3481C16.8397 46.9284 16.2546 42.0079 17.2436 36.8659C17.8607 33.658 19.4069 30.8564 21.5019 28.3594C22.0326 27.7275 22.679 27.1618 22.9771 26.3464C23.5983 25.8752 23.9786 25.1896 24.4773 24.6084C26.4678 22.2921 27.8051 19.6527 27.9402 16.5421C28.0907 13.0986 27.3189 9.91185 25.0805 7.17934C21.1495 2.38159 16.1306 0.755059 10.2454 2.20666C6.00518 3.25339 2.63839 5.62194 1.0114 9.97956C0.327455 11.1674 0.0990086 12.4849 0.0223955 13.8237C-0.155904 16.9286 0.716092 19.6287 3.15378 21.6643C5.17776 23.3529 7.70042 23.573 9.87902 22.2526C10.7956 21.6968 11.3235 20.856 11.5213 19.7204C11.1842 19.822 10.9251 19.8981 10.666 19.9771C10.2468 20.1041 9.85116 20.193 9.40123 19.9941C7.22821 19.032 6.5359 17.4238 7.32432 15.082C8.9123 12.8235 11.6954 12.4116 13.9089 14.1171C15.7267 15.5179 16.4051 17.4633 16.4691 19.6936C16.3034 22.3316 15.3506 24.6423 13.7473 26.7216C12.7221 28.0519 11.7247 29.4175 10.8555 30.855C7.73107 36.0209 7.65863 41.3279 10.4223 46.6519C12.1788 50.0361 15.0149 52.2424 18.4402 53.7378C19.9655 54.4036 21.5326 54.8832 23.3727 55.0695C21.8822 53.9705 20.7957 52.7164 19.8596 51.3466V51.3481Z" fill="url(#paint1_linear_86_731)"/>
<defs>
<linearGradient id="paint0_linear_86_731" x1="45.3251" y1="-0.847222" x2="40.6654" y2="55.0694" gradientUnits="userSpaceOnUse">
<stop stop-color="#ECE3F2"/>
<stop offset="1" stop-color="#671FA2"/>
</linearGradient>
<linearGradient id="paint1_linear_86_731" x1="15.25" y1="-1.27082" x2="13.9792" y2="55.0695" gradientUnits="userSpaceOnUse">
<stop stop-color="#ECE3F2"/>
<stop offset="1" stop-color="#671FA2"/>
</linearGradient>
</defs>
</svg>
