<svg width="38" height="26" viewBox="0 0 38 26" fill="none" xmlns="http://www.w3.org/2000/svg">
<path d="M0.505731 13.6621L7.41495 19.9126C7.57429 20.0619 7.76489 20.1809 7.97563 20.2628C8.18636 20.3447 8.41302 20.3878 8.64237 20.3896C8.87172 20.3914 9.09917 20.3519 9.31145 20.2733C9.52373 20.1948 9.71659 20.0787 9.87877 19.932C10.0409 19.7853 10.1692 19.6108 10.2561 19.4188C10.3429 19.2267 10.3866 19.021 10.3846 18.8135C10.3826 18.606 10.335 18.401 10.2444 18.2103C10.1539 18.0197 10.0223 17.8472 9.85736 17.7031L4.16934 12.5574L9.85736 7.41164C10.0223 7.26749 10.1539 7.09507 10.2444 6.90442C10.335 6.71377 10.3826 6.50873 10.3846 6.30124C10.3866 6.09376 10.3429 5.88799 10.2561 5.69595C10.1692 5.50391 10.0409 5.32944 9.87877 5.18272C9.71659 5.036 9.52373 4.91997 9.31145 4.8414C9.09917 4.76283 8.87172 4.72329 8.64237 4.7251C8.41302 4.7269 8.18636 4.77001 7.97563 4.8519C7.76489 4.9338 7.57429 5.05284 7.41495 5.20209L0.505731 11.4526C0.181912 11.7456 0 12.143 0 12.5574C0 12.9717 0.181912 13.3691 0.505731 13.6621Z" fill="white"/>
<path d="M30.585 5.20209C30.4256 5.05284 30.235 4.9338 30.0243 4.8519C29.8136 4.77001 29.5869 4.7269 29.3575 4.7251C29.1282 4.72329 28.9007 4.76283 28.6885 4.8414C28.4762 4.91997 28.2833 5.036 28.1212 5.18272C27.959 5.32944 27.8307 5.50391 27.7439 5.69595C27.657 5.88799 27.6133 6.09376 27.6153 6.30124C27.6173 6.50873 27.6649 6.71377 27.7555 6.90442C27.846 7.09507 27.9776 7.26749 28.1426 7.41164L33.8306 12.5574L28.1426 17.7031C27.9776 17.8472 27.846 18.0197 27.7555 18.2103C27.6649 18.401 27.6173 18.606 27.6153 18.8135C27.6133 19.021 27.657 19.2267 27.7439 19.4188C27.8307 19.6108 27.959 19.7853 28.1212 19.932C28.2833 20.0787 28.4762 20.1948 28.6885 20.2733C28.9007 20.3519 29.1282 20.3914 29.3575 20.3896C29.5869 20.3878 29.8136 20.3447 30.0243 20.2628C30.235 20.1809 30.4256 20.0619 30.585 19.9126L37.4942 13.6621C37.818 13.3691 37.9999 12.9717 37.9999 12.5574C37.9999 12.143 37.818 11.7456 37.4942 11.4526L30.585 5.20209Z" fill="white"/>
<path d="M20.7945 1.19075L13.8853 23.0675C13.7595 23.4658 13.8137 23.8929 14.0359 24.2551C14.2581 24.6172 14.6301 24.8848 15.0702 24.9989C15.225 25.0376 15.3847 25.0575 15.5452 25.0583C15.9206 25.058 16.2857 24.9472 16.5852 24.7425C16.8847 24.5378 17.1023 24.2504 17.2052 23.9238L24.1144 2.04707C24.1864 1.84729 24.2131 1.63642 24.193 1.42708C24.1728 1.21774 24.1062 1.01422 23.9971 0.828709C23.888 0.643193 23.7387 0.479489 23.5581 0.347389C23.3774 0.215288 23.1692 0.117505 22.9458 0.059888C22.7224 0.0022708 22.4885 -0.0139965 22.258 0.0120592C22.0275 0.0381149 21.8052 0.105958 21.6044 0.211531C21.4036 0.317104 21.2283 0.458237 21.0892 0.62649C20.95 0.794742 20.8498 0.986656 20.7945 1.19075Z" fill="white"/>
</svg>
