<svg width="418" height="319" viewBox="0 0 418 319" fill="none" xmlns="http://www.w3.org/2000/svg">
<path opacity="0.3" d="M0.5 179C0.5 174.858 3.85786 171.5 8 171.5H34C38.1421 171.5 41.5 174.858 41.5 179V318.5H0.5V179Z" fill="url(#paint0_linear_4049_242)" stroke="url(#paint1_linear_4049_242)"/>
<path opacity="0.3" d="M47.5 218C47.5 213.858 50.8579 210.5 55 210.5H81C85.1421 210.5 88.5 213.858 88.5 218V318.5H47.5V218Z" fill="url(#paint2_linear_4049_242)" stroke="url(#paint3_linear_4049_242)"/>
<path d="M94.5 133C94.5 128.858 97.8579 125.5 102 125.5H128C132.142 125.5 135.5 128.858 135.5 133V318.5H94.5V133Z" fill="url(#paint4_linear_4049_242)" stroke="url(#paint5_linear_4049_242)"/>
<path opacity="0.3" d="M141.5 179C141.5 174.858 144.858 171.5 149 171.5H175C179.142 171.5 182.5 174.858 182.5 179V318.5H141.5V179Z" fill="url(#paint6_linear_4049_242)" stroke="url(#paint7_linear_4049_242)"/>
<path opacity="0.3" d="M188.5 64C188.5 59.8579 191.858 56.5 196 56.5H222C226.142 56.5 229.5 59.8579 229.5 64V318.5H188.5V64Z" fill="url(#paint8_linear_4049_242)" stroke="url(#paint9_linear_4049_242)"/>
<path d="M235.5 8C235.5 3.85786 238.858 0.5 243 0.5H269C273.142 0.5 276.5 3.85786 276.5 8V318.5H235.5V8Z" fill="url(#paint10_linear_4049_242)" stroke="url(#paint11_linear_4049_242)"/>
<path opacity="0.3" d="M282.5 133C282.5 128.858 285.858 125.5 290 125.5H316C320.142 125.5 323.5 128.858 323.5 133V318.5H282.5V133Z" fill="url(#paint12_linear_4049_242)" stroke="url(#paint13_linear_4049_242)"/>
<path opacity="0.3" d="M329.5 72C329.5 67.8579 332.858 64.5 337 64.5H363C367.142 64.5 370.5 67.8579 370.5 72V318.5H329.5V72Z" fill="url(#paint14_linear_4049_242)" stroke="url(#paint15_linear_4049_242)"/>
<path d="M376.5 200C376.5 195.858 379.858 192.5 384 192.5H410C414.142 192.5 417.5 195.858 417.5 200V318.5H376.5V200Z" fill="url(#paint16_linear_4049_242)" stroke="url(#paint17_linear_4049_242)"/>
<defs>
<linearGradient id="paint0_linear_4049_242" x1="21" y1="171" x2="21" y2="319" gradientUnits="userSpaceOnUse">
<stop stop-color="#B386FD"/>
<stop offset="1" stop-color="#B386FD" stop-opacity="0"/>
</linearGradient>
<linearGradient id="paint1_linear_4049_242" x1="15" y1="171" x2="15" y2="314.067" gradientUnits="userSpaceOnUse">
<stop stop-color="white" stop-opacity="0.5"/>
<stop offset="1" stop-color="white" stop-opacity="0"/>
</linearGradient>
<linearGradient id="paint2_linear_4049_242" x1="68" y1="210" x2="68" y2="319" gradientUnits="userSpaceOnUse">
<stop stop-color="#B386FD"/>
<stop offset="1" stop-color="#B386FD" stop-opacity="0"/>
</linearGradient>
<linearGradient id="paint3_linear_4049_242" x1="78.5" y1="210" x2="78.5" y2="319" gradientUnits="userSpaceOnUse">
<stop stop-color="white" stop-opacity="0.5"/>
<stop offset="1" stop-color="white" stop-opacity="0"/>
</linearGradient>
<linearGradient id="paint4_linear_4049_242" x1="115" y1="125" x2="115" y2="319" gradientUnits="userSpaceOnUse">
<stop stop-color="#8043B1"/>
<stop offset="1" stop-color="#8043B1" stop-opacity="0"/>
</linearGradient>
<linearGradient id="paint5_linear_4049_242" x1="110.5" y1="125" x2="110.5" y2="319" gradientUnits="userSpaceOnUse">
<stop stop-color="white" stop-opacity="0.5"/>
<stop offset="1" stop-color="white" stop-opacity="0"/>
</linearGradient>
<linearGradient id="paint6_linear_4049_242" x1="162" y1="171" x2="162" y2="319" gradientUnits="userSpaceOnUse">
<stop stop-color="#B386FD"/>
<stop offset="1" stop-color="#B386FD" stop-opacity="0"/>
</linearGradient>
<linearGradient id="paint7_linear_4049_242" x1="152" y1="171" x2="152" y2="319" gradientUnits="userSpaceOnUse">
<stop stop-color="white" stop-opacity="0.5"/>
<stop offset="1" stop-color="white" stop-opacity="0"/>
</linearGradient>
<linearGradient id="paint8_linear_4049_242" x1="209" y1="56" x2="209" y2="319" gradientUnits="userSpaceOnUse">
<stop stop-color="#B386FD"/>
<stop offset="1" stop-color="#B386FD" stop-opacity="0"/>
</linearGradient>
<linearGradient id="paint9_linear_4049_242" x1="202.5" y1="56" x2="202.5" y2="319" gradientUnits="userSpaceOnUse">
<stop stop-color="white" stop-opacity="0.5"/>
<stop offset="1" stop-color="white" stop-opacity="0"/>
</linearGradient>
<linearGradient id="paint10_linear_4049_242" x1="256" y1="0" x2="256" y2="319" gradientUnits="userSpaceOnUse">
<stop stop-color="#8043B1"/>
<stop offset="1" stop-color="#8043B1" stop-opacity="0"/>
</linearGradient>
<linearGradient id="paint11_linear_4049_242" x1="235" y1="0" x2="235" y2="319" gradientUnits="userSpaceOnUse">
<stop stop-color="white" stop-opacity="0.5"/>
<stop offset="1" stop-color="white" stop-opacity="0"/>
</linearGradient>
<linearGradient id="paint12_linear_4049_242" x1="303" y1="125" x2="303" y2="319" gradientUnits="userSpaceOnUse">
<stop stop-color="#B386FD"/>
<stop offset="1" stop-color="#B386FD" stop-opacity="0"/>
</linearGradient>
<linearGradient id="paint13_linear_4049_242" x1="299.5" y1="125" x2="299.5" y2="319" gradientUnits="userSpaceOnUse">
<stop stop-color="white" stop-opacity="0.5"/>
<stop offset="1" stop-color="white" stop-opacity="0"/>
</linearGradient>
<linearGradient id="paint14_linear_4049_242" x1="350" y1="64" x2="350" y2="319" gradientUnits="userSpaceOnUse">
<stop stop-color="#B386FD"/>
<stop offset="1" stop-color="#B386FD" stop-opacity="0"/>
</linearGradient>
<linearGradient id="paint15_linear_4049_242" x1="350" y1="64" x2="350" y2="319" gradientUnits="userSpaceOnUse">
<stop stop-color="white" stop-opacity="0.5"/>
<stop offset="1" stop-color="white" stop-opacity="0"/>
</linearGradient>
<linearGradient id="paint16_linear_4049_242" x1="397" y1="192" x2="397" y2="319" gradientUnits="userSpaceOnUse">
<stop stop-color="#8043B1"/>
<stop offset="1" stop-color="#8043B1" stop-opacity="0"/>
</linearGradient>
<linearGradient id="paint17_linear_4049_242" x1="397" y1="192" x2="397" y2="319" gradientUnits="userSpaceOnUse">
<stop stop-color="white" stop-opacity="0.5"/>
<stop offset="1" stop-color="white" stop-opacity="0"/>
</linearGradient>
</defs>
</svg>
