<svg width="76" height="25" viewBox="0 0 76 25" fill="none" xmlns="http://www.w3.org/2000/svg">
<path d="M26.3206 6.41326C26.1232 6.32034 25.9996 6.1938 25.8982 6.00796C24.9118 4.2046 23.4078 3.07491 21.3884 2.64638C21.1074 2.58708 20.8768 2.59503 20.8 2.22885C20.6216 1.3773 19.9993 0.798393 19.4201 0.209703C19.0905 -0.124683 18.8851 -0.0543825 18.7154 0.386371C18.697 0.433442 18.6853 0.483569 18.6761 0.533696C18.4061 2.05585 18.5439 3.47409 19.7226 4.6313C19.797 4.70404 19.9213 4.77129 19.8456 4.90944C19.7798 5.02926 19.6279 5.06838 19.5351 5.05371C19.4053 5.03293 19.2559 5.02315 19.1403 4.9614C18.6084 4.67715 18.1522 4.30791 17.9228 3.72901C17.8515 3.54867 17.7931 3.52055 17.6301 3.64831C17.0982 4.06461 16.6752 4.53838 16.3911 5.17597C16.1402 5.73899 15.8438 6.28366 15.7473 6.89314C15.588 7.9018 15.168 8.78942 14.5906 9.61713C14.3404 9.97536 13.9972 10.2492 13.7168 10.5793C13.5607 10.66 13.4364 10.7762 13.3374 10.9198C13.2686 10.959 13.2003 10.9987 13.1315 11.0378C12.7182 11.4083 12.3007 11.7738 11.893 12.1504C10.5667 13.3761 9.57421 14.8029 9.19912 16.5995C8.85969 18.2231 8.85969 19.826 9.65723 21.3255C10.6638 23.2194 12.2238 24.2971 14.4326 24.3185C15.3746 24.3277 16.3173 24.3234 17.2599 24.3246C18.7966 24.3264 20.3332 24.3222 21.8693 24.3332C22.1392 24.335 22.1921 24.2574 22.0993 24.0159C21.9609 23.6577 21.777 23.3392 21.4628 23.1001C20.8393 22.6258 20.1211 22.5329 19.3685 22.5585C19.0241 22.5701 19.0198 22.564 19.1631 22.2688C19.3967 21.7871 19.5511 21.2809 19.5966 20.7497C19.7522 18.9561 18.7142 17.6992 17.2243 17.3918C16.4839 17.2389 15.7786 17.3667 15.1447 17.8056C14.9528 17.9389 14.745 17.9652 14.5457 17.8148C14.3453 17.6638 14.3354 17.4559 14.3902 17.2346C14.4652 16.9302 14.6749 16.734 14.9264 16.5677C15.3648 16.2779 15.8641 16.1545 16.364 16.0285C16.7705 15.9961 17.1794 15.9631 17.5828 16.0457C19.1791 16.3721 20.1998 17.36 20.7969 18.8289C21.0109 19.5472 21.1074 20.2747 20.9715 21.0205C20.9697 21.0303 20.9937 21.0449 21.0213 21.0737C21.386 20.7729 21.6725 20.4159 21.8484 19.9739C22.574 18.6156 22.6767 17.1796 22.47 15.6783C22.2807 14.304 21.5956 13.0729 21.3946 11.7047C21.3294 11.2628 21.5323 10.5139 21.8748 10.2254C22.3557 9.82069 22.93 9.79502 23.5166 9.77301C25.0041 9.71616 26.0869 9.01254 26.7621 7.69884C27.1052 7.03191 27.0019 6.73298 26.3237 6.41326H26.3206ZM23.4545 6.33379C23.3549 6.53613 22.9841 6.47806 22.7314 6.52635C22.692 6.53369 22.6496 6.52758 22.609 6.52758C22.0986 6.51718 21.7389 6.27511 21.5249 5.81907C21.3767 5.50302 21.4505 5.31046 21.7684 5.15702C22.2911 4.90516 22.8531 5.0641 23.1889 5.56843C23.3457 5.80379 23.5732 6.09232 23.4545 6.3344V6.33379Z" fill="url(#paint0_linear_86_2098)"/>
<path d="M8.77524 22.689C7.44084 20.7361 7.18233 18.5619 7.61933 16.2899C7.892 14.8724 8.57521 13.6345 9.50092 12.5312C9.73543 12.2519 10.021 12.002 10.1527 11.6417C10.4272 11.4335 10.5953 11.1306 10.8156 10.8738C11.6952 9.85024 12.2861 8.68398 12.3458 7.30953C12.4122 5.78798 12.0713 4.37987 11.0821 3.17247C9.3452 1.05252 7.12755 0.333815 4.52706 0.975225C2.65347 1.43774 1.16581 2.48431 0.446901 4.40979C0.14469 4.93464 0.0437483 5.51683 0.00989578 6.10837C-0.0688883 7.48033 0.316415 8.67339 1.39354 9.57285C2.28786 10.319 3.40254 10.4162 4.36518 9.83278C4.77018 9.58719 5.00345 9.21569 5.09086 8.7139C4.9419 8.75878 4.82742 8.79244 4.71294 8.82735C4.52767 8.88345 4.35287 8.92272 4.15406 8.83483C3.19388 8.40972 2.88798 7.69912 3.23635 6.66438C3.93802 5.66643 5.16779 5.48441 6.14582 6.23802C6.94905 6.85699 7.2488 7.71657 7.27712 8.70206C7.20387 9.86769 6.78287 10.8887 6.07443 11.8075C5.62142 12.3953 5.18072 12.9987 4.79665 13.6339C3.41608 15.9165 3.38407 18.2615 4.60523 20.614C5.38137 22.1093 6.63453 23.0842 8.14805 23.745C8.82202 24.0392 9.51446 24.2511 10.3275 24.3334C9.66895 23.8478 9.18886 23.2937 8.77524 22.6884V22.689Z" fill="url(#paint1_linear_86_2098)"/>
<path d="M33.8965 6.44202V2.45817H35.8575C36.1751 2.45817 36.437 2.5221 36.6432 2.64994C36.8494 2.77366 37.002 2.94275 37.1009 3.1572C37.204 3.37165 37.2556 3.61291 37.2556 3.88097C37.2556 4.15316 37.1979 4.39442 37.0824 4.60475C36.9669 4.81507 36.8019 4.98004 36.5875 5.09963C36.3772 5.21511 36.1256 5.27285 35.8328 5.27285H34.8925V6.44202H33.8965ZM34.8925 4.50577H35.6101C35.8204 4.50577 35.9771 4.44803 36.0802 4.33256C36.1875 4.21709 36.2411 4.06449 36.2411 3.87479C36.2411 3.66859 36.1916 3.50981 36.0926 3.39846C35.9978 3.28299 35.8472 3.22525 35.641 3.22525H34.8925V4.50577ZM39.4482 6.50388C39.0771 6.50388 38.7533 6.44408 38.477 6.32448C38.2048 6.20488 37.9924 6.02755 37.8398 5.79248C37.6914 5.55741 37.6171 5.26872 37.6171 4.92642V2.45817H38.6131V4.83363C38.6131 5.10994 38.6853 5.31615 38.8296 5.45224C38.974 5.58834 39.1802 5.65638 39.4482 5.65638C39.7163 5.65638 39.9225 5.58834 40.0668 5.45224C40.2112 5.31615 40.2833 5.10994 40.2833 4.83363V2.45817H41.2793V4.92642C41.2793 5.26872 41.203 5.55741 41.0504 5.79248C40.902 6.02755 40.6896 6.20488 40.4133 6.32448C40.1411 6.44408 39.8194 6.50388 39.4482 6.50388ZM41.8768 6.44202V2.45817H43.8688C44.3389 2.45817 44.6853 2.58189 44.908 2.82934C45.1307 3.07678 45.2421 3.40877 45.2421 3.8253C45.2421 4.09336 45.174 4.32843 45.0379 4.53051C44.9018 4.73259 44.7163 4.88312 44.4812 4.9821C44.5389 5.02746 44.5843 5.07901 44.6173 5.13675C44.6544 5.19036 44.6936 5.26666 44.7348 5.36564L45.205 6.44202H44.1657L43.7203 5.4275C43.6832 5.34089 43.6358 5.27903 43.578 5.24191C43.5203 5.20067 43.4378 5.18005 43.3306 5.18005H42.8728V6.44202H41.8768ZM42.8728 4.41298H43.609C43.8028 4.41298 43.9533 4.36555 44.0605 4.2707C44.1719 4.17172 44.2276 4.02325 44.2276 3.8253C44.2276 3.42527 44.0358 3.22525 43.6523 3.22525H42.8728V4.41298ZM45.7492 6.44202V2.45817H47.7102C48.0277 2.45817 48.2896 2.5221 48.4958 2.64994C48.702 2.77366 48.8546 2.94275 48.9536 3.1572C49.0567 3.37165 49.1082 3.61291 49.1082 3.88097C49.1082 4.15316 49.0505 4.39442 48.935 4.60475C48.8196 4.81507 48.6546 4.98004 48.4401 5.09963C48.2298 5.21511 47.9783 5.27285 47.6854 5.27285H46.7452V6.44202H45.7492ZM46.7452 4.50577H47.4627C47.6731 4.50577 47.8298 4.44803 47.9329 4.33256C48.0401 4.21709 48.0937 4.06449 48.0937 3.87479C48.0937 3.66859 48.0442 3.50981 47.9453 3.39846C47.8504 3.28299 47.6999 3.22525 47.4937 3.22525H46.7452V4.50577ZM49.5007 6.44202V2.45817H50.4967V5.67494H52.3773V6.44202H49.5007ZM52.7629 6.44202V2.45817H55.7013V3.22525H53.7589V4.06037H55.4724V4.83982H53.7589V5.67494H55.7013V6.44202H52.7629ZM35.1647 14.5039C34.9008 14.5039 34.6533 14.4833 34.4224 14.442C34.1955 14.4049 33.9996 14.3492 33.8347 14.275V13.4275C34.0161 13.5059 34.2162 13.5698 34.4347 13.6193C34.6574 13.6688 34.8678 13.6935 35.0657 13.6935C35.3132 13.6935 35.4967 13.6708 35.6163 13.6255C35.74 13.5801 35.8019 13.4811 35.8019 13.3285C35.8019 13.2254 35.7709 13.1429 35.7091 13.0811C35.6513 13.0192 35.5544 12.9656 35.4183 12.9202C35.2864 12.8707 35.1049 12.813 34.8739 12.747C34.6018 12.6645 34.3852 12.5738 34.2244 12.4748C34.0636 12.3717 33.9481 12.248 33.878 12.1037C33.8079 11.9593 33.7728 11.782 33.7728 11.5717C33.7728 11.1923 33.9089 10.9015 34.1811 10.6994C34.4533 10.4974 34.8554 10.3963 35.3874 10.3963C35.6183 10.3963 35.8431 10.4149 36.0617 10.452C36.2803 10.485 36.4576 10.5242 36.5937 10.5695V11.4232C36.4163 11.3531 36.237 11.3015 36.0555 11.2686C35.8782 11.2356 35.7049 11.2191 35.5359 11.2191C35.3132 11.2191 35.1317 11.2397 34.9915 11.2809C34.8554 11.3222 34.7873 11.417 34.7873 11.5655C34.7873 11.6521 34.8121 11.7222 34.8616 11.7758C34.9111 11.8253 34.9956 11.8707 35.1152 11.9119C35.2389 11.9531 35.406 12.0026 35.6163 12.0604C35.9421 12.147 36.1916 12.2521 36.3648 12.3759C36.538 12.4955 36.6576 12.6357 36.7236 12.7965C36.7896 12.9532 36.8226 13.1306 36.8226 13.3285C36.8226 13.6791 36.6865 13.9636 36.4143 14.1822C36.1421 14.3967 35.7256 14.5039 35.1647 14.5039ZM39.8704 15.506C39.5899 15.506 39.3693 15.4668 39.2085 15.3885C39.0518 15.3143 38.9425 15.2008 38.8806 15.0483C38.8187 14.8957 38.7857 14.706 38.7816 14.4791C38.2661 14.4173 37.8743 14.2234 37.6063 13.8976C37.3382 13.5677 37.2042 13.0914 37.2042 12.4687C37.2042 11.7304 37.3733 11.2005 37.7114 10.8788C38.0496 10.5572 38.5424 10.3963 39.1899 10.3963C39.8374 10.3963 40.3302 10.5572 40.6684 10.8788C41.0066 11.2005 41.1756 11.7304 41.1756 12.4687C41.1756 13.079 41.0457 13.5471 40.7859 13.8729C40.5302 14.1987 40.157 14.3967 39.6662 14.4668C39.6662 14.5987 39.6889 14.6895 39.7343 14.7389C39.7838 14.7926 39.8663 14.8194 39.9817 14.8194C40.1096 14.8194 40.2395 14.8029 40.3715 14.7699V15.4442C40.3096 15.4607 40.2271 15.4751 40.124 15.4875C40.025 15.4998 39.9405 15.506 39.8704 15.506ZM39.1899 13.6564C39.524 13.6564 39.7673 13.5615 39.9199 13.3718C40.0766 13.178 40.1549 12.8769 40.1549 12.4687C40.1549 12.0233 40.0766 11.7098 39.9199 11.5284C39.7673 11.3428 39.524 11.25 39.1899 11.25C38.8517 11.25 38.6043 11.3428 38.4476 11.5284C38.295 11.7098 38.2187 12.0233 38.2187 12.4687C38.2187 12.8769 38.295 13.178 38.4476 13.3718C38.6043 13.5615 38.8517 13.6564 39.1899 13.6564ZM43.4837 14.5039C43.1125 14.5039 42.7888 14.4441 42.5125 14.3245C42.2403 14.2049 42.0279 14.0275 41.8753 13.7925C41.7268 13.5574 41.6526 13.2687 41.6526 12.9264V10.4582H42.6486V12.8336C42.6486 13.1099 42.7207 13.3161 42.8651 13.4522C43.0094 13.5883 43.2156 13.6564 43.4837 13.6564C43.7517 13.6564 43.958 13.5883 44.1023 13.4522C44.2466 13.3161 44.3188 13.1099 44.3188 12.8336V10.4582H45.3148V12.9264C45.3148 13.2687 45.2385 13.5574 45.0859 13.7925C44.9374 14.0275 44.725 14.2049 44.4487 14.3245C44.1765 14.4441 43.8548 14.5039 43.4837 14.5039ZM45.9123 14.442V10.4582H46.9083V14.442H45.9123ZM47.5374 14.442V10.4582H49.5293C49.9994 10.4582 50.3458 10.5819 50.5685 10.8293C50.7912 11.0768 50.9026 11.4088 50.9026 11.8253C50.9026 12.0934 50.8345 12.3284 50.6985 12.5305C50.5624 12.7326 50.3768 12.8831 50.1417 12.9821C50.1994 13.0275 50.2448 13.079 50.2778 13.1368C50.3149 13.1904 50.3541 13.2667 50.3953 13.3656L50.8655 14.442H49.8262L49.3808 13.4275C49.3437 13.3409 49.2963 13.279 49.2385 13.2419C49.1808 13.2007 49.0983 13.1801 48.9911 13.1801H48.5333V14.442H47.5374ZM48.5333 12.413H49.2695C49.4633 12.413 49.6138 12.3656 49.7211 12.2707C49.8324 12.1717 49.8881 12.0233 49.8881 11.8253C49.8881 11.4253 49.6963 11.2252 49.3128 11.2252H48.5333V12.413ZM51.4097 14.442V10.4582H53.4016C53.8718 10.4582 54.2182 10.5819 54.4409 10.8293C54.6636 11.0768 54.7749 11.4088 54.7749 11.8253C54.7749 12.0934 54.7069 12.3284 54.5708 12.5305C54.4347 12.7326 54.2491 12.8831 54.0141 12.9821C54.0718 13.0275 54.1172 13.079 54.1501 13.1368C54.1873 13.1904 54.2264 13.2667 54.2677 13.3656L54.7378 14.442H53.6986L53.2532 13.4275C53.216 13.3409 53.1686 13.279 53.1109 13.2419C53.0531 13.2007 52.9707 13.1801 52.8634 13.1801H52.4057V14.442H51.4097ZM52.4057 12.413H53.1418C53.3356 12.413 53.4862 12.3656 53.5934 12.2707C53.7048 12.1717 53.7604 12.0233 53.7604 11.8253C53.7604 11.4253 53.5687 11.2252 53.1851 11.2252H52.4057V12.413ZM55.2821 14.442V10.4582H58.2205V11.2252H56.278V12.0604H57.9916V12.8398H56.278V13.6749H58.2205V14.442H55.2821ZM58.6953 14.442V10.4582H59.6912V13.6749H61.5718V14.442H58.6953ZM33.8965 22.442V18.4582H34.7502L36.4452 20.8398V18.4582H37.4474V22.442H36.5875L34.8925 20.0666V22.442H33.8965ZM38.077 22.442V18.4582H41.0154V19.2252H39.073V20.0604H40.7865V20.8398H39.073V21.6749H41.0154V22.442H38.077ZM42.4119 22.442V19.2252H41.2428V18.4582H44.5771V19.2252H43.4079V22.442H42.4119ZM45.7378 22.442L44.8099 18.4582H45.7873L46.3131 20.8584L46.8575 19.0211V18.4582H47.6741L48.3607 20.8646L48.9113 18.4582H49.8887L48.967 22.442H48.0452L47.3772 20.1408L46.6596 22.442H45.7378ZM52.0091 22.5039C51.3617 22.5039 50.8688 22.3389 50.5307 22.009C50.1925 21.6791 50.0234 21.1656 50.0234 20.4687C50.0234 19.7304 50.1925 19.2005 50.5307 18.8788C50.8688 18.5572 51.3617 18.3963 52.0091 18.3963C52.6566 18.3963 53.1494 18.5572 53.4876 18.8788C53.8258 19.2005 53.9949 19.7304 53.9949 20.4687C53.9949 21.1656 53.8258 21.6791 53.4876 22.009C53.1494 22.3389 52.6566 22.5039 52.0091 22.5039ZM52.0091 21.6564C52.3432 21.6564 52.5865 21.5615 52.7391 21.3718C52.8958 21.178 52.9742 20.8769 52.9742 20.4687C52.9742 20.0233 52.8958 19.7098 52.7391 19.5284C52.5865 19.3428 52.3432 19.25 52.0091 19.25C51.671 19.25 51.4235 19.3428 51.2668 19.5284C51.1142 19.7098 51.0379 20.0233 51.0379 20.4687C51.0379 20.8769 51.1142 21.178 51.2668 21.3718C51.4235 21.5615 51.671 21.6564 52.0091 21.6564ZM54.5028 22.442V18.4582H56.4947C56.9648 18.4582 57.3112 18.5819 57.5339 18.8293C57.7566 19.0768 57.868 19.4088 57.868 19.8253C57.868 20.0934 57.7999 20.3284 57.6639 20.5305C57.5278 20.7326 57.3422 20.8831 57.1071 20.9821C57.1648 21.0275 57.2102 21.079 57.2432 21.1368C57.2803 21.1904 57.3195 21.2667 57.3607 21.3656L57.8309 22.442H56.7916L56.3462 21.4275C56.3091 21.3409 56.2617 21.279 56.2039 21.2419C56.1462 21.2007 56.0637 21.1801 55.9565 21.1801H55.4987V22.442H54.5028ZM55.4987 20.413H56.2349C56.4287 20.413 56.5792 20.3656 56.6864 20.2707C56.7978 20.1717 56.8535 20.0233 56.8535 19.8253C56.8535 19.4253 56.6617 19.2252 56.2782 19.2252H55.4987V20.413ZM58.3751 22.442V18.4582H59.3711V20.0047L60.7444 18.4582H61.8826L60.4598 20.0851L61.9692 22.442H60.9052L59.8412 20.7223L59.3711 21.2357V22.442H58.3751Z" fill="white"/>
<defs>
<linearGradient id="paint0_linear_86_2098" x1="20.0275" y1="-0.374357" x2="17.9686" y2="24.3332" gradientUnits="userSpaceOnUse">
<stop stop-color="#ECE3F2"/>
<stop offset="1" stop-color="#671FA2"/>
</linearGradient>
<linearGradient id="paint1_linear_86_2098" x1="6.73842" y1="-0.561347" x2="6.17689" y2="24.3334" gradientUnits="userSpaceOnUse">
<stop stop-color="#ECE3F2"/>
<stop offset="1" stop-color="#671FA2"/>
</linearGradient>
</defs>
</svg>
