<svg width="38" height="38" viewBox="0 0 38 38" fill="none" xmlns="http://www.w3.org/2000/svg">
<path d="M4.46068 20.7294C4.36637 20.4512 4.31823 20.1595 4.31818 19.8658C4.38003 19.0086 4.77748 18.2104 5.42425 17.6445C6.07103 17.0785 6.91492 16.7906 7.77273 16.843C8.63053 16.7906 9.47443 17.0785 10.1212 17.6445C10.768 18.2104 11.1654 19.0086 11.2273 19.8658C11.2272 20.1595 11.1791 20.4512 11.0848 20.7294H15.5455V15.5726C15.5455 15.335 15.6106 15.1018 15.7338 14.8986C15.8569 14.6953 16.0334 14.5297 16.2441 14.4197C16.4488 14.3112 16.6794 14.2609 16.9107 14.2743C17.142 14.2877 17.3652 14.3643 17.556 14.4957C17.7253 14.617 17.9281 14.6828 18.1364 14.684C18.8385 14.684 19.4318 13.8929 19.4318 12.9567C19.4318 12.0205 18.8385 11.2294 18.1364 11.2294C17.9284 11.2306 17.7257 11.2957 17.556 11.416C17.365 11.5473 17.1417 11.6239 16.9102 11.6373C16.6788 11.6507 16.4481 11.6004 16.2433 11.492C16.0325 11.3824 15.8559 11.2169 15.7329 11.0137C15.6098 10.8105 15.545 10.5774 15.5455 10.3399V5.18396H3.45454C2.53834 5.18396 1.65967 5.54792 1.01181 6.19577C0.36396 6.84363 0 7.7223 0 8.6385V20.7294H4.46068Z" fill="white"/>
<path d="M19.4317 8.91917C19.6547 8.72785 19.9073 8.57412 20.1796 8.46403C20.9979 8.20072 21.887 8.27067 22.654 8.6587C23.421 9.04674 24.0041 9.72156 24.2767 10.5368C24.6465 11.3125 24.6955 12.2028 24.413 13.0145C24.1306 13.8261 23.5395 14.4936 22.768 14.8722C22.4954 14.9815 22.207 15.046 21.9138 15.0631L23.585 19.199L28.366 17.2671C28.5862 17.1776 28.8267 17.1504 29.0613 17.1885C29.2959 17.2266 29.5155 17.3285 29.696 17.483C29.8733 17.6323 30.0062 17.8273 30.0805 18.0469C30.1548 18.2664 30.1676 18.5021 30.1175 18.7283C30.0691 18.9295 30.0842 19.1407 30.1607 19.3329C30.4017 19.6391 30.7355 19.8587 31.1121 19.9588C31.4886 20.0589 31.8875 20.034 32.2487 19.888C32.6099 19.7419 32.914 19.4825 33.1151 19.1488C33.3162 18.815 33.4035 18.4251 33.3639 18.0374C33.2846 17.845 33.148 17.6816 32.9727 17.5693C32.7791 17.4416 32.6244 17.2631 32.5254 17.0534C32.4264 16.8437 32.3869 16.6108 32.4113 16.3801C32.4341 16.1438 32.5214 15.9183 32.6636 15.7282C32.8059 15.5381 32.9976 15.3908 33.218 15.3023L37.9999 13.3738L33.471 2.16121C33.3011 1.74045 33.05 1.35728 32.732 1.03358C32.414 0.709889 32.0353 0.452016 31.6177 0.274693C31.2 0.0973705 30.7515 0.00407318 30.2977 0.00013042C29.844 -0.00381234 29.3939 0.0816768 28.9732 0.251714L17.7632 4.78408L19.4317 8.91917Z" fill="white"/>
<path d="M28.3574 22.4567C28.4517 22.7348 28.4998 23.0266 28.4999 23.3203C28.438 24.1775 28.0406 24.9757 27.3938 25.5416C26.747 26.1075 25.9031 26.3955 25.0453 26.343C24.1875 26.3955 23.3436 26.1075 22.6968 25.5416C22.0501 24.9757 21.6526 24.1775 21.5908 23.3203C21.5908 23.0266 21.639 22.7348 21.7333 22.4567H17.2726V27.6126C17.2731 27.8501 17.2083 28.0833 17.0852 28.2864C16.9621 28.4896 16.7855 28.6551 16.5748 28.7647C16.3702 28.8734 16.1398 28.924 15.9085 28.9109C15.6772 28.8978 15.4539 28.8215 15.2629 28.6904C15.0933 28.5691 14.8902 28.5033 14.6817 28.5021C13.9795 28.5021 13.3862 29.2932 13.3862 30.2294C13.3862 31.1656 13.9795 31.9567 14.6817 31.9567C14.8906 31.9554 15.094 31.8893 15.2638 31.7675C15.4546 31.6369 15.6775 31.5608 15.9084 31.5476C16.1393 31.5343 16.3694 31.5844 16.5739 31.6924C16.7847 31.8023 16.9612 31.9679 17.0844 32.1712C17.2076 32.3745 17.2727 32.6077 17.2726 32.8453V38.0021H29.3635C30.2797 38.0021 31.1584 37.6382 31.8062 36.9903C32.4541 36.3425 32.818 35.4638 32.818 34.5476V22.4567H28.3574Z" fill="white"/>
<path d="M15.5455 33.5414C15.2673 33.6358 14.9755 33.6839 14.6818 33.6839C13.8246 33.6221 13.0264 33.2247 12.4605 32.5779C11.8946 31.9311 11.6066 31.0872 11.6591 30.2294C11.6066 29.3716 11.8946 28.5277 12.4605 27.8809C13.0264 27.2342 13.8246 26.8367 14.6818 26.7749C14.9755 26.7749 15.2673 26.823 15.5455 26.9174V22.4567H10.3895C10.152 22.4572 9.91887 22.3923 9.71567 22.2693C9.51248 22.1462 9.34705 21.9696 9.23745 21.7589C9.12871 21.5543 9.07814 21.3238 9.09123 21.0925C9.10433 20.8612 9.18059 20.638 9.31172 20.447C9.43306 20.2774 9.49883 20.0743 9.5 19.8658C9.5 19.1636 8.70891 18.5703 7.77273 18.5703C6.83654 18.5703 6.04545 19.1636 6.04545 19.8658C6.04675 20.0747 6.11283 20.2781 6.23459 20.4479C6.36553 20.6386 6.44175 20.8615 6.455 21.0924C6.46825 21.3234 6.418 21.5536 6.30973 21.758C6.1998 21.9687 6.03419 22.1453 5.83091 22.2685C5.62763 22.3917 5.39446 22.4568 5.15677 22.4567H0V34.5476C0 35.4638 0.36396 36.3425 1.01181 36.9903C1.65967 37.6382 2.53834 38.0021 3.45454 38.0021H15.5455V33.5414Z" fill="white"/>
</svg>
