<svg width="38" height="38" viewBox="0 0 38 38" fill="none" xmlns="http://www.w3.org/2000/svg">
<g clip-path="url(#clip0_86_981)">
<path d="M15.2211 37.9098C15.7237 38.1247 16.3082 37.9453 16.6018 37.4815L29.9612 16.2549C30.1775 15.9114 30.1906 15.4776 29.9949 15.1232C29.7992 14.7677 29.4252 14.5469 29.0197 14.5469H20.1036L23.4196 1.38728C23.5533 0.855648 23.2825 0.306578 22.7792 0.0902304C22.2791 -0.125004 21.6909 0.0554219 21.3984 0.518547L8.03906 21.7451C7.82271 22.0887 7.80965 22.5225 8.00536 22.8769C8.20108 23.2324 8.57506 23.4531 8.98059 23.4531H17.8966L14.5807 36.6128C14.447 37.1445 14.7176 37.6935 15.2211 37.9098Z" fill="white"/>
</g>
<defs>
<clipPath id="clip0_86_981">
<rect width="38" height="38" fill="white"/>
</clipPath>
</defs>
</svg>
