<svg width="38" height="38" viewBox="0 0 38 38" fill="none" xmlns="http://www.w3.org/2000/svg">
<path d="M35.447 2.84258C35.4173 2.70899 35.3134 2.60508 35.1872 2.56797C30.838 1.50664 20.7962 5.2918 15.356 10.732C14.3837 11.6969 13.5005 12.7434 12.7138 13.8566C11.0364 13.7082 9.3591 13.8344 7.92668 14.4578C3.88917 16.2316 2.71652 20.8703 2.38253 22.8594C2.31574 23.2453 2.5755 23.6164 2.96886 23.6832C3.03566 23.6906 3.10246 23.698 3.16925 23.6906L9.64855 22.9781C9.65597 23.468 9.68566 23.9578 9.73761 24.4402C9.7673 24.7742 9.92316 25.0934 10.1607 25.3309L12.6693 27.832C12.9068 28.0695 13.2259 28.2254 13.5599 28.2551C14.0423 28.307 14.5247 28.3367 15.0146 28.3441L14.3021 34.816C14.2575 35.2094 14.547 35.5656 14.9403 35.6027C15.0071 35.6102 15.0739 35.6102 15.1333 35.5953C17.1224 35.2762 21.7685 34.1035 23.5349 30.066C24.1583 28.6336 24.2845 26.9637 24.1435 25.2938C25.2642 24.507 26.3107 23.6164 27.2755 22.6516C32.7306 17.2262 36.4935 7.40703 35.447 2.84258ZM26.8599 16.1723C25.472 17.5602 23.2157 17.5676 21.8278 16.1723C20.4325 14.7844 20.4325 12.5281 21.8278 11.1328C23.2157 9.7375 25.472 9.7375 26.8673 11.1328C28.2552 12.5281 28.2552 14.7844 26.8599 16.1723Z" fill="white"/>
<path d="M12.4984 29.643C12.0902 30.0512 11.4371 30.207 10.6504 30.348C8.88398 30.6449 7.32539 29.1234 7.64453 27.3422C7.76328 26.6668 8.12695 25.7168 8.34961 25.4941C8.47578 25.368 8.4832 25.1601 8.35703 25.034C8.28281 24.9598 8.18633 24.9226 8.08242 24.9375C7.09531 25.0562 6.175 25.509 5.47734 26.2066C3.72578 27.9582 3.5625 34.4375 3.5625 34.4375C3.5625 34.4375 10.0492 34.2742 11.7934 32.5226C12.4984 31.8176 12.9438 30.9047 13.0625 29.9101C13.0922 29.6058 12.7137 29.4203 12.4984 29.643Z" fill="white"/>
</svg>
