<svg width="38" height="20" viewBox="0 0 38 20" fill="none" xmlns="http://www.w3.org/2000/svg">
<path d="M27.2009 14.9466C26.9623 15.4423 26.6 15.806 26.1139 16.0379C25.3981 16.3776 24.4349 16.3936 23.5379 16.0899C23.1181 15.9459 22.6453 16.1098 22.4421 16.4736C21.364 18.3723 19.3491 19.0159 17.3033 18.1125C16.9011 17.9366 16.4151 18.0565 16.1721 18.3963C15.6109 19.1878 14.8642 19.5915 12.8847 19.1678C12.076 18.9919 11.3337 18.6042 10.7328 18.0445L6.65883 14.2471C6.5307 14.1311 6.36722 14.0512 6.19046 14.0192L0.613716 13.0506C0.257504 12.9887 0 12.7067 0 12.3786V4.01329C0 3.59077 0.419129 3.26923 0.879905 3.33826L6.96372 4.24976C7.22443 4.29372 7.49396 4.22177 7.6928 4.06187C11.0642 1.38365 14.4356 0.244422 17.9484 0.61217L11.126 6.51624C10.7019 6.88398 10.4677 7.39963 10.4854 7.92728C10.4986 8.45893 10.7681 8.9626 11.2144 9.30637L11.8595 9.80603C13.923 11.397 16.963 11.325 18.9337 9.64615L22.1637 6.89599C22.7779 9.7181 24.3332 12.9239 27.2009 14.9466Z" fill="white"/>
<path d="M38.0001 4.05113V12.136C38.0001 12.4811 37.716 12.7722 37.3374 12.8149L28.4736 13.8154C25.3909 11.7456 23.9665 7.94639 23.6802 5.23924C23.6474 4.92853 23.4518 4.63774 23.1316 4.52136C23.0175 4.47988 22.9091 4.4616 22.7957 4.4616C22.5748 4.4616 22.3539 4.53755 22.1904 4.68145L17.7232 8.48293C16.4064 9.60219 14.3783 9.64618 13.0085 8.59087L12.359 8.0912C12.2662 8.01925 12.253 7.9313 12.2485 7.88333C12.2485 7.83536 12.2574 7.74743 12.3457 7.67148L19.7822 1.23974C19.959 1.08784 20.1446 0.947937 20.3346 0.824021C20.3743 0.804015 20.4141 0.780032 20.4495 0.756048C22.1153 -0.255269 24.3467 -0.263271 26.0346 0.800038L31.3104 4.11783C31.5048 4.24175 31.7434 4.28972 31.9776 4.24975L37.1042 3.37867C37.5697 3.29957 38.0001 3.62263 38.0001 4.05113Z" fill="white"/>
</svg>
