<svg width="17" height="17" viewBox="0 0 17 17" fill="none" xmlns="http://www.w3.org/2000/svg">
<path d="M16.0958 16.2856V10.4289C16.0958 7.55055 15.4762 5.35181 12.1181 5.35181C10.499 5.35181 9.41963 6.23131 8.97988 7.07083H8.93991V5.61166H5.76172V16.2856H9.07983V10.9886C9.07983 9.58939 9.33968 8.25015 11.0587 8.25015C12.7577 8.25015 12.7777 9.82925 12.7777 11.0685V16.2656H16.0958V16.2856Z" fill="#8043B1"/>
<path d="M0.365234 5.61182H3.68334V16.2857H0.365234V5.61182Z" fill="#8043B1"/>
<path d="M2.02437 0.292969C0.964979 0.292969 0.105469 1.15248 0.105469 2.21187C0.105469 3.27127 0.964979 4.15077 2.02437 4.15077C3.08377 4.15077 3.94328 3.27127 3.94328 2.21187C3.94328 1.15248 3.08377 0.292969 2.02437 0.292969Z" fill="#8043B1"/>
</svg>
