<svg width="172" height="58" viewBox="0 0 172 58" fill="none" xmlns="http://www.w3.org/2000/svg">
<path d="M59.5672 13.7469C59.1205 13.5567 58.8407 13.2976 58.6111 12.9171C56.379 9.22498 52.9751 6.91207 48.405 6.03471C47.769 5.91331 47.2471 5.92958 47.0732 5.17988C46.6696 3.43643 45.2613 2.25119 43.9504 1.04592C43.2045 0.361304 42.7397 0.505236 42.3556 1.40762C42.3138 1.504 42.2874 1.60662 42.2665 1.70925C41.6556 4.82568 41.9673 7.72935 44.6351 10.0986C44.8035 10.2475 45.0846 10.3852 44.9134 10.6681C44.7645 10.9134 44.4208 10.9935 44.2106 10.9634C43.917 10.9209 43.5788 10.9008 43.3172 10.7744C42.1134 10.1925 41.0809 9.4365 40.5618 8.25125C40.4004 7.88204 40.2682 7.82447 39.8994 8.08605C38.6956 8.93837 37.7382 9.90834 37.0953 11.2137C36.5275 12.3664 35.8567 13.4816 35.6382 14.7294C35.2778 16.7945 34.3273 18.6118 33.0206 20.3065C32.4542 21.0399 31.6777 21.6006 31.0431 22.2764C30.6896 22.4417 30.4085 22.6795 30.1845 22.9736C30.0286 23.0537 29.8741 23.135 29.7183 23.2151C28.7831 23.9736 27.8382 24.722 26.9156 25.493C23.9138 28.0024 21.6677 30.9236 20.8189 34.602C20.0507 37.9262 20.0507 41.2078 21.8556 44.2779C24.1337 48.1553 27.6642 50.3619 32.6629 50.4057C34.7949 50.4244 36.9283 50.4157 39.0616 50.4182C42.5393 50.4219 46.0169 50.4132 49.4932 50.4357C50.1041 50.4395 50.2238 50.2805 50.0137 49.7861C49.7006 49.0527 49.2845 48.4006 48.5734 47.9113C47.1623 46.94 45.5368 46.7498 43.8335 46.8024C43.0542 46.8261 43.0444 46.8136 43.3687 46.2091C43.8975 45.2229 44.2468 44.1866 44.3498 43.0989C44.7019 39.4268 42.3528 36.8536 38.9809 36.224C37.3054 35.9111 35.7092 36.1727 34.2744 37.0713C33.8403 37.3442 33.3699 37.398 32.919 37.0901C32.4653 36.781 32.4431 36.3554 32.5669 35.9024C32.7367 35.2791 33.2112 34.8773 33.7804 34.5369C34.7726 33.9437 35.9026 33.6908 37.034 33.433C37.9539 33.3667 38.8793 33.2991 39.7922 33.4681C43.4049 34.1364 45.715 36.159 47.0662 39.1665C47.5505 40.6371 47.769 42.1265 47.4615 43.6534C47.4573 43.6734 47.5116 43.7035 47.5742 43.7623C48.3994 43.1465 49.0479 42.4156 49.4459 41.5107C51.088 38.7297 51.3204 35.7897 50.8528 32.7159C50.4242 29.9023 48.8739 27.3816 48.4189 24.5806C48.2714 23.6757 48.7306 22.1425 49.5057 21.5518C50.594 20.7232 51.8938 20.6707 53.2214 20.6256C56.5877 20.5092 59.0383 19.0686 60.5663 16.379C61.3429 15.0135 61.1091 14.4015 59.5741 13.7469H59.5672ZM53.0808 13.5842C52.8554 13.9985 52.0162 13.8796 51.4443 13.9785C51.3552 13.9935 51.2592 13.981 51.1673 13.981C50.0123 13.9597 49.1982 13.4641 48.7139 12.5304C48.3785 11.8833 48.5455 11.4891 49.265 11.1749C50.4479 10.6593 51.7198 10.9847 52.4796 12.0173C52.8345 12.4991 53.3494 13.0899 53.0808 13.5855V13.5842Z" fill="url(#paint0_linear_4006_236)"/>
<path d="M19.8596 47.0692C16.8397 43.0709 16.2546 38.6195 17.2436 33.9678C17.8607 31.0657 19.4069 28.5312 21.5019 26.2723C22.0326 25.7006 22.679 25.1888 22.9771 24.4512C23.5983 24.0249 23.9786 23.4047 24.4773 22.8789C26.4678 20.7834 27.8051 18.3956 27.9402 15.5816C28.0907 12.4664 27.3189 9.58349 25.0805 7.1115C21.1495 2.77115 16.1306 1.2997 10.2454 2.6129C6.00518 3.55984 2.63839 5.70258 1.0114 9.64475C0.327455 10.7193 0.0990086 11.9113 0.0223955 13.1224C-0.155904 15.9313 0.716092 18.3739 3.15378 20.2155C5.17776 21.7431 7.70042 21.9422 9.87902 20.7477C10.7956 20.2448 11.3235 19.4842 11.5213 18.4569C11.1842 18.5488 10.9251 18.6177 10.666 18.6892C10.2468 18.804 9.85116 18.8844 9.40123 18.7045C7.22821 17.8341 6.5359 16.3792 7.32432 14.2608C8.9123 12.2176 11.6954 11.8449 13.9089 13.3878C15.7267 14.6551 16.4051 16.415 16.4691 18.4326C16.3034 20.8191 15.3506 22.9095 13.7473 24.7906C12.7221 25.9941 11.7247 27.2295 10.8555 28.5299C7.73107 33.2033 7.65863 38.0044 10.4223 42.8208C12.1788 45.8824 15.0149 47.8783 18.4402 49.2311C19.9655 49.8335 21.5326 50.2674 23.3727 50.4358C21.8822 49.4417 20.7957 48.3071 19.8596 47.0679V47.0692Z" fill="url(#paint1_linear_4006_236)"/>
<path d="M76.7125 18V8.984H81.1505C81.8692 8.984 82.4619 9.12867 82.9285 9.418C83.3952 9.698 83.7405 10.0807 83.9645 10.566C84.1979 11.0513 84.3145 11.5973 84.3145 12.204C84.3145 12.82 84.1839 13.366 83.9225 13.842C83.6612 14.318 83.2879 14.6913 82.8025 14.962C82.3265 15.2233 81.7572 15.354 81.0945 15.354H78.9665V18H76.7125ZM78.9665 13.618H80.5905C81.0665 13.618 81.4212 13.4873 81.6545 13.226C81.8972 12.9647 82.0185 12.6193 82.0185 12.19C82.0185 11.7233 81.9065 11.364 81.6825 11.112C81.4679 10.8507 81.1272 10.72 80.6605 10.72H78.9665V13.618ZM89.2768 18.14C88.4368 18.14 87.7041 18.0047 87.0788 17.734C86.4628 17.4633 85.9821 17.062 85.6368 16.53C85.3008 15.998 85.1328 15.3447 85.1328 14.57V8.984H87.3868V14.36C87.3868 14.9853 87.5501 15.452 87.8768 15.76C88.2034 16.068 88.6701 16.222 89.2768 16.222C89.8834 16.222 90.3501 16.068 90.6768 15.76C91.0034 15.452 91.1668 14.9853 91.1668 14.36V8.984H93.4208V14.57C93.4208 15.3447 93.2481 15.998 92.9028 16.53C92.5668 17.062 92.0861 17.4633 91.4608 17.734C90.8448 18.0047 90.1168 18.14 89.2768 18.14ZM94.7731 18V8.984H99.2811C100.345 8.984 101.129 9.264 101.633 9.824C102.137 10.384 102.389 11.1353 102.389 12.078C102.389 12.6847 102.235 13.2167 101.927 13.674C101.619 14.1313 101.199 14.472 100.667 14.696C100.798 14.7987 100.9 14.9153 100.975 15.046C101.059 15.1673 101.148 15.34 101.241 15.564L102.305 18H99.9531L98.9451 15.704C98.8611 15.508 98.7537 15.368 98.6231 15.284C98.4924 15.1907 98.3057 15.144 98.0631 15.144H97.0271V18H94.7731ZM97.0271 13.408H98.6931C99.1317 13.408 99.4724 13.3007 99.7151 13.086C99.9671 12.862 100.093 12.526 100.093 12.078C100.093 11.1727 99.6591 10.72 98.7911 10.72H97.0271V13.408ZM103.537 18V8.984H107.975C108.693 8.984 109.286 9.12867 109.753 9.418C110.219 9.698 110.565 10.0807 110.789 10.566C111.022 11.0513 111.139 11.5973 111.139 12.204C111.139 12.82 111.008 13.366 110.747 13.842C110.485 14.318 110.112 14.6913 109.627 14.962C109.151 15.2233 108.581 15.354 107.919 15.354H105.791V18H103.537ZM105.791 13.618H107.415C107.891 13.618 108.245 13.4873 108.479 13.226C108.721 12.9647 108.843 12.6193 108.843 12.19C108.843 11.7233 108.731 11.364 108.507 11.112C108.292 10.8507 107.951 10.72 107.485 10.72H105.791V13.618ZM112.027 18V8.984H114.281V16.264H118.537V18H112.027ZM119.41 18V8.984H126.06V10.72H121.664V12.61H125.542V14.374H121.664V16.264H126.06V18H119.41ZM79.5825 36.14C78.9852 36.14 78.4252 36.0933 77.9025 36C77.3892 35.916 76.9459 35.79 76.5725 35.622V33.704C76.9832 33.8813 77.4359 34.026 77.9305 34.138C78.4345 34.25 78.9105 34.306 79.3585 34.306C79.9185 34.306 80.3339 34.2547 80.6045 34.152C80.8845 34.0493 81.0245 33.8253 81.0245 33.48C81.0245 33.2467 80.9545 33.06 80.8145 32.92C80.6839 32.78 80.4645 32.6587 80.1565 32.556C79.8579 32.444 79.4472 32.3133 78.9245 32.164C78.3085 31.9773 77.8185 31.772 77.4545 31.548C77.0905 31.3147 76.8292 31.0347 76.6705 30.708C76.5119 30.3813 76.4325 29.98 76.4325 29.504C76.4325 28.6453 76.7405 27.9873 77.3565 27.53C77.9725 27.0727 78.8825 26.844 80.0865 26.844C80.6092 26.844 81.1179 26.886 81.6125 26.97C82.1072 27.0447 82.5085 27.1333 82.8165 27.236V29.168C82.4152 29.0093 82.0092 28.8927 81.5985 28.818C81.1972 28.7433 80.8052 28.706 80.4225 28.706C79.9185 28.706 79.5079 28.7527 79.1905 28.846C78.8825 28.9393 78.7285 29.154 78.7285 29.49C78.7285 29.686 78.7845 29.8447 78.8965 29.966C79.0085 30.078 79.1999 30.1807 79.4705 30.274C79.7505 30.3673 80.1285 30.4793 80.6045 30.61C81.3419 30.806 81.9065 31.044 82.2985 31.324C82.6905 31.5947 82.9612 31.912 83.1105 32.276C83.2599 32.6307 83.3345 33.032 83.3345 33.48C83.3345 34.2733 83.0265 34.9173 82.4105 35.412C81.7945 35.8973 80.8519 36.14 79.5825 36.14ZM90.2322 38.408C89.5975 38.408 89.0982 38.3193 88.7342 38.142C88.3795 37.974 88.1322 37.7173 87.9922 37.372C87.8522 37.0267 87.7775 36.5973 87.7682 36.084C86.6015 35.944 85.7148 35.5053 85.1082 34.768C84.5015 34.0213 84.1982 32.9433 84.1982 31.534C84.1982 29.8633 84.5808 28.664 85.3462 27.936C86.1115 27.208 87.2268 26.844 88.6922 26.844C90.1575 26.844 91.2728 27.208 92.0382 27.936C92.8035 28.664 93.1862 29.8633 93.1862 31.534C93.1862 32.9153 92.8922 33.9747 92.3042 34.712C91.7255 35.4493 90.8808 35.8973 89.7702 36.056C89.7702 36.3547 89.8215 36.56 89.9242 36.672C90.0362 36.7933 90.2228 36.854 90.4842 36.854C90.7735 36.854 91.0675 36.8167 91.3662 36.742V38.268C91.2262 38.3053 91.0395 38.338 90.8062 38.366C90.5822 38.394 90.3908 38.408 90.2322 38.408ZM88.6922 34.222C89.4482 34.222 89.9988 34.0073 90.3442 33.578C90.6988 33.1393 90.8762 32.458 90.8762 31.534C90.8762 30.526 90.6988 29.8167 90.3442 29.406C89.9988 28.986 89.4482 28.776 88.6922 28.776C87.9268 28.776 87.3668 28.986 87.0122 29.406C86.6668 29.8167 86.4942 30.526 86.4942 31.534C86.4942 32.458 86.6668 33.1393 87.0122 33.578C87.3668 34.0073 87.9268 34.222 88.6922 34.222ZM98.4096 36.14C97.5696 36.14 96.8369 36.0047 96.2116 35.734C95.5956 35.4633 95.1149 35.062 94.7696 34.53C94.4336 33.998 94.2656 33.3447 94.2656 32.57V26.984H96.5196V32.36C96.5196 32.9853 96.6829 33.452 97.0096 33.76C97.3362 34.068 97.8029 34.222 98.4096 34.222C99.0162 34.222 99.4829 34.068 99.8096 33.76C100.136 33.452 100.3 32.9853 100.3 32.36V26.984H102.554V32.57C102.554 33.3447 102.381 33.998 102.036 34.53C101.7 35.062 101.219 35.4633 100.594 35.734C99.9776 36.0047 99.2496 36.14 98.4096 36.14ZM103.906 36V26.984H106.16V36H103.906ZM107.584 36V26.984H112.092C113.156 26.984 113.94 27.264 114.444 27.824C114.948 28.384 115.2 29.1353 115.2 30.078C115.2 30.6847 115.046 31.2167 114.738 31.674C114.43 32.1313 114.01 32.472 113.478 32.696C113.608 32.7987 113.711 32.9153 113.786 33.046C113.87 33.1673 113.958 33.34 114.052 33.564L115.116 36H112.764L111.756 33.704C111.672 33.508 111.564 33.368 111.434 33.284C111.303 33.1907 111.116 33.144 110.874 33.144H109.838V36H107.584ZM109.838 31.408H111.504C111.942 31.408 112.283 31.3007 112.526 31.086C112.778 30.862 112.904 30.526 112.904 30.078C112.904 29.1727 112.47 28.72 111.602 28.72H109.838V31.408ZM116.347 36V26.984H120.855C121.919 26.984 122.703 27.264 123.207 27.824C123.711 28.384 123.963 29.1353 123.963 30.078C123.963 30.6847 123.809 31.2167 123.501 31.674C123.193 32.1313 122.773 32.472 122.241 32.696C122.372 32.7987 122.475 32.9153 122.549 33.046C122.633 33.1673 122.722 33.34 122.815 33.564L123.879 36H121.527L120.519 33.704C120.435 33.508 120.328 33.368 120.197 33.284C120.067 33.1907 119.88 33.144 119.637 33.144H118.601V36H116.347ZM118.601 31.408H120.267C120.706 31.408 121.047 31.3007 121.289 31.086C121.541 30.862 121.667 30.526 121.667 30.078C121.667 29.1727 121.233 28.72 120.365 28.72H118.601V31.408ZM125.111 36V26.984H131.761V28.72H127.365V30.61H131.243V32.374H127.365V34.264H131.761V36H125.111ZM132.836 36V26.984H135.09V34.264H139.346V36H132.836ZM76.7125 54V44.984H78.6445L82.4805 50.374V44.984H84.7485V54H82.8025L78.9665 48.624V54H76.7125ZM86.1735 54V44.984H92.8235V46.72H88.4275V48.61H92.3055V50.374H88.4275V52.264H92.8235V54H86.1735ZM95.9841 54V46.72H93.3381V44.984H100.884V46.72H98.2381V54H95.9841ZM103.511 54L101.411 44.984H103.623L104.813 50.416L106.045 46.258V44.984H107.893L109.447 50.43L110.693 44.984H112.905L110.819 54H108.733L107.221 48.792L105.597 54H103.511ZM117.704 54.14C116.239 54.14 115.123 53.7667 114.358 53.02C113.593 52.2733 113.21 51.1113 113.21 49.534C113.21 47.8633 113.593 46.664 114.358 45.936C115.123 45.208 116.239 44.844 117.704 44.844C119.169 44.844 120.285 45.208 121.05 45.936C121.815 46.664 122.198 47.8633 122.198 49.534C122.198 51.1113 121.815 52.2733 121.05 53.02C120.285 53.7667 119.169 54.14 117.704 54.14ZM117.704 52.222C118.46 52.222 119.011 52.0073 119.356 51.578C119.711 51.1393 119.888 50.458 119.888 49.534C119.888 48.526 119.711 47.8167 119.356 47.406C119.011 46.986 118.46 46.776 117.704 46.776C116.939 46.776 116.379 46.986 116.024 47.406C115.679 47.8167 115.506 48.526 115.506 49.534C115.506 50.458 115.679 51.1393 116.024 51.578C116.379 52.0073 116.939 52.222 117.704 52.222ZM123.347 54V44.984H127.855C128.919 44.984 129.703 45.264 130.207 45.824C130.711 46.384 130.963 47.1353 130.963 48.078C130.963 48.6847 130.809 49.2167 130.501 49.674C130.193 50.1313 129.773 50.472 129.241 50.696C129.372 50.7987 129.475 50.9153 129.549 51.046C129.633 51.1673 129.722 51.34 129.815 51.564L130.879 54H128.527L127.519 51.704C127.435 51.508 127.328 51.368 127.197 51.284C127.067 51.1907 126.88 51.144 126.637 51.144H125.601V54H123.347ZM125.601 49.408H127.267C127.706 49.408 128.047 49.3007 128.289 49.086C128.541 48.862 128.667 48.526 128.667 48.078C128.667 47.1727 128.233 46.72 127.365 46.72H125.601V49.408ZM132.111 54V44.984H134.365V48.484L137.473 44.984H140.049L136.829 48.666L140.245 54H137.837L135.429 50.108L134.365 51.27V54H132.111Z" fill="#6E29A6"/>
<defs>
<linearGradient id="paint0_linear_4006_236" x1="45.3251" y1="-0.149872" x2="41.5067" y2="50.4992" gradientUnits="userSpaceOnUse">
<stop stop-color="#ECE3F2"/>
<stop offset="1" stop-color="#671FA2"/>
</linearGradient>
<linearGradient id="paint1_linear_4006_236" x1="15.25" y1="-0.533035" x2="14.2098" y2="50.4405" gradientUnits="userSpaceOnUse">
<stop stop-color="#ECE3F2"/>
<stop offset="1" stop-color="#671FA2"/>
</linearGradient>
</defs>
</svg>
