<svg width="38" height="38" viewBox="0 0 38 38" fill="none" xmlns="http://www.w3.org/2000/svg">
<g clip-path="url(#clip0_86_653)">
<path d="M23.3315 33.207V34.3173C23.3315 35.2008 22.6826 35.9358 21.8381 36.0609L21.5645 37.0695C21.4159 37.6169 20.9233 38 20.3525 38H17.6394C17.0686 38 16.576 37.6169 16.4274 37.0695L16.1616 36.0609C15.3093 35.928 14.6604 35.2008 14.6604 34.3095V33.1992C14.6604 32.6049 15.1373 32.128 15.7315 32.128H22.2604C22.8546 32.1358 23.3315 32.6128 23.3315 33.207ZM28.3591 18.2416C28.3591 20.7671 27.3583 23.058 25.732 24.7391C24.4966 26.0214 23.699 27.6556 23.4332 29.3992C23.3159 30.1498 22.6669 30.7049 21.9007 30.7049H16.0912C15.3328 30.7049 14.676 30.1576 14.5665 29.407C14.2929 27.6634 13.4875 26.0058 12.2521 24.7313C10.6571 23.0737 9.66406 20.8218 9.6406 18.3432C9.58587 13.1358 13.7299 8.9214 18.9373 8.8823C24.1369 8.84321 28.3591 13.0498 28.3591 18.2416ZM20.0554 12.5728C20.0554 11.9942 19.5863 11.5173 18.9999 11.5173C15.278 11.5173 12.2443 14.5432 12.2443 18.2728C12.2443 18.8514 12.7134 19.3284 13.2999 19.3284C13.8785 19.3284 14.3554 18.8593 14.3554 18.2728C14.3554 15.7082 16.4431 13.6284 18.9999 13.6284C19.5863 13.6284 20.0554 13.1593 20.0554 12.5728ZM18.9999 5.80946C19.5785 5.80946 20.0554 5.34033 20.0554 4.75391V1.05556C20.0554 0.476955 19.5863 0 18.9999 0C18.4134 0 17.9443 0.469136 17.9443 1.05556V4.75391C17.9443 5.34033 18.4213 5.80946 18.9999 5.80946ZM6.57558 18.2337C6.57558 17.6551 6.10644 17.1782 5.52002 17.1782H1.82167C1.24307 17.1782 0.766113 17.6473 0.766113 18.2337C0.766113 18.8123 1.23525 19.2893 1.82167 19.2893H5.52002C6.10644 19.2893 6.57558 18.8202 6.57558 18.2337ZM36.178 17.1782H32.4797C31.9011 17.1782 31.4241 17.6473 31.4241 18.2337C31.4241 18.8123 31.8933 19.2893 32.4797 19.2893H36.178C36.7566 19.2893 37.2336 18.8202 37.2336 18.2337C37.2336 17.6551 36.7645 17.1782 36.178 17.1782ZM8.72578 27.0222L6.10644 29.6416C5.69204 30.056 5.69204 30.7206 6.10644 31.135C6.30973 31.3383 6.5834 31.4399 6.84924 31.4399C7.11508 31.4399 7.38875 31.3383 7.59204 31.135L10.2114 28.5156C10.6258 28.1012 10.6258 27.4366 10.2114 27.0222C9.8048 26.6078 9.13237 26.6078 8.72578 27.0222ZM28.5311 9.75803C28.797 9.75803 29.0706 9.65638 29.2739 9.45309L31.8933 6.83375C32.3077 6.41934 32.3077 5.75473 31.8933 5.34033C31.4789 4.92593 30.8143 4.92593 30.3999 5.34033L27.7805 7.95967C27.3661 8.37407 27.3661 9.03868 27.7805 9.45309C27.9916 9.65638 28.2575 9.75803 28.5311 9.75803ZM8.72578 9.44527C8.92908 9.64856 9.20274 9.75021 9.46858 9.75021C9.73443 9.75021 10.0081 9.64856 10.2114 9.44527C10.6258 9.03086 10.6258 8.36625 10.2114 7.95185L7.59204 5.33251C7.17764 4.91811 6.51303 4.91811 6.09862 5.33251C5.68422 5.74691 5.68422 6.41152 6.09862 6.82593L8.72578 9.44527ZM29.2739 27.0222C28.8595 26.6078 28.1949 26.6078 27.7805 27.0222C27.3661 27.4366 27.3661 28.1012 27.7805 28.5156L30.3999 31.135C30.6031 31.3383 30.8768 31.4399 31.1427 31.4399C31.4085 31.4399 31.6822 31.3383 31.8855 31.135C32.2999 30.7206 32.2999 30.056 31.8855 29.6416L29.2739 27.0222Z" fill="white"/>
</g>
<defs>
<clipPath id="clip0_86_653">
<rect width="38" height="38" fill="white"/>
</clipPath>
</defs>
</svg>
